<svg xmlns="http://www.w3.org/2000/svg" xmlns:xlink="http://www.w3.org/1999/xlink" viewBox="0 0 505.56 462.54"><defs><linearGradient id="a" x1="500" y1="268.73" x2="500" y2="714" gradientUnits="userSpaceOnUse"><stop offset="0" stop-color="#de337c"/><stop offset="1" stop-color="#191970"/></linearGradient></defs><title>logo</title><path d="M640,343.76V505.49L500,586.31,360,505.49V343.82l130.07-75.09v36.69l-98.3,56.75v125L500,549.62l108.23-62.48V325.43ZM511.91,269.88V391.41l22.84,13.18v40.13L500,464.78l-34.75-20.06V404.59l22.84-13.18V334.07L415.6,375.93v97.45l9.89,5.71,74.51,43,84.4-48.73V311.74Z" transform="translate(-247.22 -268.73)" style="fill:url(#a)"/><path d="M247.22,646.31h38.16a53.63,53.63,0,0,1,24.18,5.22,39.08,39.08,0,0,1,16.32,14.7,44.79,44.79,0,0,1,0,44.16,39.08,39.08,0,0,1-16.32,14.7,53.63,53.63,0,0,1-24.18,5.22H247.22Zm37.2,68q12.6,0,20.1-7t7.5-19q0-12-7.5-19t-20.1-7H266.66v52.08Z" transform="translate(-247.22 -268.73)" style="fill:#191970"/><path d="M410.9,703.31H362.06a15.21,15.21,0,0,0,6.24,9.48,20.67,20.67,0,0,0,12.24,3.48,24.78,24.78,0,0,0,8.94-1.5,21.65,21.65,0,0,0,7.26-4.74l10,10.8q-9.12,10.44-26.64,10.44A42.14,42.14,0,0,1,360.74,727a31.23,31.23,0,0,1-13-11.82A32.57,32.57,0,0,1,343.22,698a33,33,0,0,1,4.5-17.1,31.53,31.53,0,0,1,12.36-11.88,38.27,38.27,0,0,1,34.74-.18,29.78,29.78,0,0,1,12.06,11.7,34.89,34.89,0,0,1,4.38,17.7Q411.26,698.63,410.9,703.31Zm-43.8-20.76a15.33,15.33,0,0,0-5.28,9.84h31.8a15.48,15.48,0,0,0-5.28-9.78A15.78,15.78,0,0,0,377.78,679,16.12,16.12,0,0,0,367.1,682.55Z" transform="translate(-247.22 -268.73)" style="fill:#191970"/><path d="M468.38,727.19a19.24,19.24,0,0,1-6.78,3.06,34.28,34.28,0,0,1-8.46,1q-11.52,0-17.82-5.88T429,708.11V681.59h-10v-14.4h10V651.47h18.72v15.72h16.08v14.4H447.74v26.28a8.81,8.81,0,0,0,2.1,6.3,7.78,7.78,0,0,0,5.94,2.22,12,12,0,0,0,7.56-2.4Z" transform="translate(-247.22 -268.73)" style="fill:#191970"/><path d="M542.78,703.31H493.94a15.21,15.21,0,0,0,6.24,9.48,20.67,20.67,0,0,0,12.24,3.48,24.78,24.78,0,0,0,8.94-1.5,21.65,21.65,0,0,0,7.26-4.74l10,10.8q-9.12,10.44-26.64,10.44A42.14,42.14,0,0,1,492.62,727a31.23,31.23,0,0,1-13-11.82A32.57,32.57,0,0,1,475.1,698a33,33,0,0,1,4.5-17.1A31.53,31.53,0,0,1,492,669.05a38.27,38.27,0,0,1,34.74-.18,29.78,29.78,0,0,1,12.06,11.7,34.89,34.89,0,0,1,4.38,17.7Q543.14,698.63,542.78,703.31ZM499,682.55a15.33,15.33,0,0,0-5.28,9.84h31.8a15.48,15.48,0,0,0-5.28-9.78A15.78,15.78,0,0,0,509.66,679,16.12,16.12,0,0,0,499,682.55Z" transform="translate(-247.22 -268.73)" style="fill:#191970"/><path d="M571.28,727a31.9,31.9,0,0,1-12.84-11.82,34.18,34.18,0,0,1,0-34.32,31.9,31.9,0,0,1,12.84-11.82,39.69,39.69,0,0,1,18.54-4.26,35.92,35.92,0,0,1,17.82,4.26,25.27,25.27,0,0,1,11.1,12.18L604.22,689q-5-8.88-14.52-8.88a16.43,16.43,0,0,0-12.12,4.8q-4.8,4.8-4.8,13.08t4.8,13.08a16.43,16.43,0,0,0,12.12,4.8q9.6,0,14.52-8.88L618.74,715a25.77,25.77,0,0,1-11.1,12,35.52,35.52,0,0,1-17.82,4.32A39.69,39.69,0,0,1,571.28,727Z" transform="translate(-247.22 -268.73)" style="fill:#191970"/><path d="M675.14,727.19a19.24,19.24,0,0,1-6.78,3.06,34.28,34.28,0,0,1-8.46,1q-11.52,0-17.82-5.88t-6.3-17.28V681.59h-10v-14.4h10V651.47H654.5v15.72h16.08v14.4H654.5v26.28a8.81,8.81,0,0,0,2.1,6.3,7.78,7.78,0,0,0,5.94,2.22,12,12,0,0,0,7.56-2.4Z" transform="translate(-247.22 -268.73)" style="fill:#191970"/><path d="M699.08,727a31.67,31.67,0,0,1-12.66-11.82,34.57,34.57,0,0,1,0-34.32,31.67,31.67,0,0,1,12.66-11.82,41.31,41.31,0,0,1,36.54,0,31.77,31.77,0,0,1,12.6,11.82,34.57,34.57,0,0,1,0,34.32A31.77,31.77,0,0,1,735.62,727a41.31,41.31,0,0,1-36.54,0Zm30.12-16q4.62-4.86,4.62-13t-4.62-13a15.59,15.59,0,0,0-11.82-4.86A15.79,15.79,0,0,0,705.5,685q-4.68,4.86-4.68,13t4.68,13a15.79,15.79,0,0,0,11.88,4.86A15.59,15.59,0,0,0,729.2,711.05Z" transform="translate(-247.22 -268.73)" style="fill:#191970"/></svg>