<svg xmlns="http://www.w3.org/2000/svg" viewBox="0 0 238.86 490.25"><title>about-img</title><rect x="261.71" y="430.53" width="490.25" height="198.15" transform="translate(669.39 -261.71) rotate(90)" style="fill:#ed5118"/><path d="M427.76,332.44l158.12,15.28v53.63l-158.12,15V386.44l25.51-2.25v-19l-25.51-2Zm50.76,34.95v14.38l80.41-6.92v-1.44Z" transform="translate(-367.05 -284.48)" style="fill:#fff"/><path d="M427.76,426.06H585.88v42.85q0,17.25-8.4,25.12t-27.71,7.86h-6.92q-11.15,0-18.06-4a19,19,0,0,1-9.07-12.17q-2.7,10.68-12.63,14.33t-24.21,3.63A111.34,111.34,0,0,1,452,500.81q-11.5-2.88-17.88-10.42t-6.38-21.48ZM526.32,457v6.46c0,2.94,1.13,4.83,3.41,5.66a23.68,23.68,0,0,0,8.18,1.26h15.9q7.63,0,7.64-6.74V457Zm-70.71,3.14q0,12.31,11.68,12.31h19.77q6.74,0,10.64-2t3.91-7.59V457H455.79C455.67,458.28,455.61,459.33,455.61,460.11Z" transform="translate(-367.05 -284.48)" style="fill:#fff"/><path d="M426.32,551.84q0-19,11.46-29t33.1-10H546q20.31,0,30.82,9.93t10.51,29.06q0,19.14-10.51,29.07T546,590.83H470.88q-21.64,0-33.1-10T426.32,551.84Zm29.11.27q0,7.18,13.93,7.19h77.17q11.69,0,11.68-7,0-7.9-12-7.91H469.18q-7.38,0-10.56,1.8A6.26,6.26,0,0,0,455.43,552.11Z" transform="translate(-367.05 -284.48)" style="fill:#fff"/><path d="M426.32,640.16q0-19.77,11.1-29.11t32.65-9.35H585.88v30.73H471.33a61.94,61.94,0,0,0-7.59.45,13.11,13.11,0,0,0-6,2.07q-2.34,1.6-2.34,5.21t2.29,5.3a12.6,12.6,0,0,0,6,2,69.77,69.77,0,0,0,7.63.4H585.88v30.73H470.07q-21.56,0-32.65-9.34T426.32,640.16Z" transform="translate(-367.05 -284.48)" style="fill:#fff"/><path d="M427.76,704.31H555.52V685.53h30.36v69.18H555.52V735.93H427.76Z" transform="translate(-367.05 -284.48)" style="fill:#fff"/><path d="M367.88,335.65a6,6,0,0,1,2.34-2.48,6.78,6.78,0,0,1,3.49-.88H382a6.66,6.66,0,0,1,3.45.88,6.06,6.06,0,0,1,2.33,2.48,7.9,7.9,0,0,1,.82,3.69,8,8,0,0,1-.81,3.69,6,6,0,0,1-2.28,2.47,6.45,6.45,0,0,1-3.39.89.32.32,0,0,1-.24-.09.29.29,0,0,1-.09-.21l-.09-1.53q0-.3.27-.3H382a4.47,4.47,0,0,0,3.41-1.35,5.62,5.62,0,0,0,0-7.14,4.47,4.47,0,0,0-3.39-1.35h-8.4a4.47,4.47,0,0,0-3.39,1.35,5.6,5.6,0,0,0,0,7.14,4.45,4.45,0,0,0,3.4,1.35h.06q.27,0,.27.3l-.09,1.53q0,.3-.27.3a6.57,6.57,0,0,1-3.43-.89,6,6,0,0,1-2.3-2.47,8,8,0,0,1-.81-3.69A7.9,7.9,0,0,1,367.88,335.65Z" transform="translate(-367.05 -284.48)" style="fill:#ed5118"/><path d="M367.53,405l9.3-4.41a.12.12,0,0,0,.09-.12v-5.1a.11.11,0,0,0-.12-.12h-9.18a.27.27,0,0,1-.3-.3v-1.53a.27.27,0,0,1,.3-.3H388a.27.27,0,0,1,.3.3v7.77a5.61,5.61,0,0,1-1.6,4.17,6.24,6.24,0,0,1-7.76.45,5.14,5.14,0,0,1-1.89-3.09q-.06-.12-.15-.06l-9.24,4.5a.33.33,0,0,1-.15,0q-.21,0-.21-.24V405.4A.35.35,0,0,1,367.53,405Zm18.81-9.75h-7.59a.11.11,0,0,0-.12.12V401a3.71,3.71,0,0,0,3.9,3.9,3.88,3.88,0,0,0,2.84-1.08,3.78,3.78,0,0,0,1.09-2.82v-5.58A.11.11,0,0,0,386.34,395.29Z" transform="translate(-367.05 -284.48)" style="fill:#ed5118"/><path d="M368,456.25a6.17,6.17,0,0,1,2.45-2.51,7.29,7.29,0,0,1,3.64-.88h7.56a7.33,7.33,0,0,1,3.65.88,6.15,6.15,0,0,1,2.44,2.51,8.54,8.54,0,0,1,0,7.51,6.11,6.11,0,0,1-2.44,2.52,7.34,7.34,0,0,1-3.65.89H374a7.3,7.3,0,0,1-3.64-.89,6.13,6.13,0,0,1-2.45-2.52,8.54,8.54,0,0,1,0-7.51Zm2.34,7.41A5,5,0,0,0,374,465h7.68a5,5,0,0,0,3.68-1.38,5.47,5.47,0,0,0,0-7.29,5,5,0,0,0-3.68-1.38H374a5.16,5.16,0,0,0-3.66,8.67Z" transform="translate(-367.05 -284.48)" style="fill:#ed5118"/><path d="M368.61,514.88a4.91,4.91,0,0,1,4.08-2h.93a.27.27,0,0,1,.3.31v1.47a.27.27,0,0,1-.3.3h-.81a3.32,3.32,0,0,0-2.8,1.44,6.56,6.56,0,0,0-1.07,4,5.51,5.51,0,0,0,1,3.52,3.16,3.16,0,0,0,2.59,1.19,2.94,2.94,0,0,0,1.8-.55,5.46,5.46,0,0,0,1.41-1.71,30.8,30.8,0,0,0,1.53-3.25,34.79,34.79,0,0,1,1.58-3.5,5.88,5.88,0,0,1,1.74-2,4.47,4.47,0,0,1,2.68-.76,4.72,4.72,0,0,1,3.92,1.75,7.55,7.55,0,0,1,1.39,4.82,8.13,8.13,0,0,1-1.56,5.25,5.07,5.07,0,0,1-4.14,1.92h-.66a.27.27,0,0,1-.3-.3v-1.5a.27.27,0,0,1,.3-.3h.54a3.51,3.51,0,0,0,2.85-1.37,5.84,5.84,0,0,0,1.11-3.79,5.31,5.31,0,0,0-.87-3.27,3,3,0,0,0-2.52-1.14,2.78,2.78,0,0,0-1.78.55,4.67,4.67,0,0,0-1.23,1.59c-.35.69-.81,1.76-1.37,3.2a29.71,29.71,0,0,1-1.68,3.52,7,7,0,0,1-1.9,2.16,4.53,4.53,0,0,1-2.75.83,4.9,4.9,0,0,1-4-1.86,8,8,0,0,1-1.5-5.16A8.52,8.52,0,0,1,368.61,514.88Z" transform="translate(-367.05 -284.48)" style="fill:#ed5118"/><path d="M368.61,574.4a4.91,4.91,0,0,1,4.08-2h.93a.27.27,0,0,1,.3.3v1.47a.27.27,0,0,1-.3.3h-.81A3.32,3.32,0,0,0,370,576a6.59,6.59,0,0,0-1.07,4,5.46,5.46,0,0,0,1,3.51,3.17,3.17,0,0,0,2.59,1.2,2.94,2.94,0,0,0,1.8-.56,5.46,5.46,0,0,0,1.41-1.71,29.86,29.86,0,0,0,1.53-3.25,34.79,34.79,0,0,1,1.58-3.5,5.88,5.88,0,0,1,1.74-2,4.47,4.47,0,0,1,2.68-.76,4.72,4.72,0,0,1,3.92,1.75,7.55,7.55,0,0,1,1.39,4.82,8.09,8.09,0,0,1-1.56,5.25,5.07,5.07,0,0,1-4.14,1.92h-.66a.27.27,0,0,1-.3-.3v-1.5a.27.27,0,0,1,.3-.3h.54a3.51,3.51,0,0,0,2.85-1.37,5.84,5.84,0,0,0,1.11-3.79,5.31,5.31,0,0,0-.87-3.27,3,3,0,0,0-2.52-1.14,2.78,2.78,0,0,0-1.78.55,4.67,4.67,0,0,0-1.23,1.59c-.35.69-.81,1.76-1.37,3.2a29,29,0,0,1-1.68,3.52,7,7,0,0,1-1.9,2.16,4.53,4.53,0,0,1-2.75.83,4.9,4.9,0,0,1-4-1.86,8,8,0,0,1-1.5-5.16A8.52,8.52,0,0,1,368.61,574.4Z" transform="translate(-367.05 -284.48)" style="fill:#ed5118"/><path d="M386.46,646.48v-11a.11.11,0,0,0-.12-.12h-7.41a.11.11,0,0,0-.12.12v7.71a.27.27,0,0,1-.3.3h-1.26a.27.27,0,0,1-.3-.3v-7.71a.11.11,0,0,0-.12-.12h-9.21a.27.27,0,0,1-.3-.3v-1.53a.27.27,0,0,1,.3-.3H388a.27.27,0,0,1,.3.3v13a.27.27,0,0,1-.3.3h-1.26A.27.27,0,0,1,386.46,646.48Z" transform="translate(-367.05 -284.48)" style="fill:#ed5118"/><path d="M367.62,692.26H388a.27.27,0,0,1,.3.3v1.53a.27.27,0,0,1-.3.3h-20.4a.27.27,0,0,1-.3-.3v-1.53A.27.27,0,0,1,367.62,692.26Z" transform="translate(-367.05 -284.48)" style="fill:#ed5118"/><path d="M388,755h-1.29a.27.27,0,0,1-.3-.3V748.8c0-.08,0-.11-.12-.11H367.62a.27.27,0,0,1-.3-.31v-1.52a.27.27,0,0,1,.3-.31h18.69c.08,0,.12,0,.12-.11v-5.65c0-.2.1-.29.3-.29H388c.2,0,.3.09.3.29v13.9A.27.27,0,0,1,388,755Z" transform="translate(-367.05 -284.48)" style="fill:#ed5118"/></svg>