<svg xmlns="http://www.w3.org/2000/svg" viewBox="0 0 678.84 412.17"><title>crossfit-black-logo</title><path d="M1850.7,616.13C1740.63,560.05,1638.89,535,1520.84,535c-120.95,0-217,23.5-331.56,81.13l-8.7,4.37v-9.73c0-51.13.07-103.11.14-153.38s.13-102.22.13-153.32V293.92l8.91,4.94c53.55,29.72,205.22,85.22,329.64,85.22,132,0,274.35-55.79,331.17-85.29l8.76-4.56v9.88q0,76.71.05,153.42t0,153.26v9.79Z" transform="translate(-1180.58 -293.92)"/><path d="M1318.91,469.05l0,59.28q-12.23,2.5-24.39,5.31,0-77.26,0-154.52,21.87,5,43.9,9.09c13.3,2.55,20,12.81,20,29.82v17c0,10.34-3.07,16.87-9.19,19.77,5.37,2.42,8.06,7.71,8.06,16q0,25.25-.1,50.5-11.28,1.86-22.54,4l.09-52.61q0-4.12-3-4Zm0-63.32v42.16l13.87.32A2.51,2.51,0,0,0,1335,447a4.72,4.72,0,0,0,.89-2.86v-32a5.35,5.35,0,0,0-.89-3,3.07,3.07,0,0,0-2.17-1.53Q1325.84,406.73,1318.91,405.73Z" transform="translate(-1180.58 -293.92)" style="fill:#fff"/><path d="M1292,536.78V376l3.06.71c14.45,3.33,29.18,6.39,43.79,9.08,10.06,1.92,22,9.07,22,32.27v17c0,9.19-2.37,15.81-7.06,19.75,3.94,3.35,5.93,8.72,5.93,16l-.1,52.62-2.09.35c-7.48,1.22-15,2.56-22.49,4l-3,.56.1-55.62a3.35,3.35,0,0,0-.24-1.53h-.23c-3.45.12-6.89.23-10.33.36l0,58.9-2,.41c-8.1,1.66-16.28,3.43-24.33,5.29Zm5-154.53V530.5c6.43-1.46,12.93-2.87,19.39-4.21l0-59.65,2.41-.08c4.24-.16,8.5-.3,12.75-.45a5.14,5.14,0,0,1,3.87,1.39,6.86,6.86,0,0,1,1.77,5.14l-.09,49.6c5.83-1.08,11.71-2.11,17.55-3.08l.09-48.39c0-7.23-2.16-11.72-6.59-13.72l-4.92-2.22,4.88-2.32c5.22-2.48,7.76-8.2,7.76-17.51V418c0-15.88-6-25.08-18-27.36C1324.3,388.16,1310.54,385.33,1297,382.25Zm35.84,68.46h-.11l-13.88-.32-2.44-.06V402.85l2.85.41c4.55.65,9.21,1.3,13.85,1.92a5.51,5.51,0,0,1,3.93,2.64,7.88,7.88,0,0,1,1.3,4.37v32a7.24,7.24,0,0,1-1.36,4.33A5.05,5.05,0,0,1,1332.84,450.71Zm-11.43-5.26,11.4.26.12-.16a2.23,2.23,0,0,0,.41-1.39v-32a2.92,2.92,0,0,0-.48-1.64c-.15-.23-.32-.4-.41-.41l-11-1.52Z" transform="translate(-1180.58 -293.92)" style="fill:#ed5118"/><path d="M1626.94,468.8v44.71q-11.37-1.21-22.74-2.17,0-55.05,0-110.09,27.78-2.34,55.42-6.22v22.8q-16.3,1.44-32.68,2.54,0,13.92,0,27.83,9-.13,18-.3v21.35Q1635.95,469,1626.94,468.8Z" transform="translate(-1180.58 -293.92)" style="fill:#fff"/><path d="M1629.44,516.29l-2.77-.3c-7.54-.8-15.18-1.53-22.68-2.16l-2.29-.19,0-114.69,2.3-.19c18.4-1.55,37-3.63,55.28-6.2l2.84-.4v28l-2.28.2c-10.07.89-20.29,1.7-30.4,2.39l0,23,15.44-.26,2.55,0v26.47l-2.57-.07-15.42-.4Zm-22.74-7.24c5.88.5,11.83,1.07,17.74,1.68V466.24l2.56.06q7.71.18,15.43.38V450.45l-15.45.25-2.54,0,0-32.7,2.34-.16c10.07-.68,20.27-1.46,30.34-2.34V397.91c-16.69,2.29-33.63,4.18-50.42,5.63Z" transform="translate(-1180.58 -293.92)" style="fill:#ed5118"/><path d="M1803.8,398.52q0,5.25.07,10.5,8.16-1.25,16.3-2.55-.15-23.79-.3-47.54l-6.07,1.88q-5.11,1.56-10.24,3.08-25.87,7.64-52,13.84-5.48,1.29-11,2.53c-1.86.42-3.72.84-5.58,1.24q.15,18.25.31,36.54,8.28-.93,16.55-1.93c0-3,0-5.95-.07-8.93q7.38-1.1,14.75-2.26V509l-9.24-1.46v28.58q4.63,1.13,9.24,2.29,11.14,2.8,22.22,5.88c3.06.84,6.12,1.71,9.17,2.58V514.44l-9.17-1.66V401.22Q1796.27,399.92,1803.8,398.52Z" transform="translate(-1180.58 -293.92)" style="fill:#fff"/><path d="M1800.39,550.2l-3.19-.91c-3-.88-6.1-1.74-9.15-2.58-7.32-2-14.77-4-22.16-5.87q-4.61-1.15-9.22-2.28l-1.91-.46V504.63l2.89.45,6.35,1V407.84c-3.25.51-6.51,1-9.74,1.49l.07,9-2.21.27c-5.5.67-11.07,1.32-16.57,1.94l-2.76.31-.35-41.34,2-.44,5.57-1.24q5.48-1.23,10.94-2.53c17.36-4.11,34.83-8.76,51.93-13.8q5.12-1.5,10.21-3.07l6-1.88,3.23-1,.34,53.07-2.12.34c-5.38.87-10.88,1.72-16.33,2.55l-2.85.43-.07-10.4-10.1,1.81V510.69l7.12,1.3,2.05.37Zm-40.63-16q3.69.9,7.36,1.83c7.42,1.87,14.91,3.85,22.26,5.89q3,.83,6,1.68v-27c-2.37-.44-4.74-.86-7.11-1.28l-2.06-.37V399.12l2.07-.36c5-.87,10.09-1.78,15-2.7l2.94-.54.07,10.59c3.78-.58,7.57-1.17,11.31-1.77l-.27-42-2.85.88q-5.13,1.57-10.27,3.09c-17.18,5.06-34.74,9.73-52.18,13.87q-5.5,1.3-11,2.54l-3.62.81.27,31.74c3.85-.44,7.72-.9,11.56-1.36l-.07-8.86,2.15-.32c4.87-.72,9.82-1.48,14.73-2.26L1769,402V512l-2.9-.47-6.34-1Z" transform="translate(-1180.58 -293.92)" style="fill:#ed5118"/><path d="M1492.84,445.58q-7.83,0-15.67-.12a2.92,2.92,0,0,1-2.2-1,3.15,3.15,0,0,1-.9-2.23V420.94q8.09.24,16.16.41v11.09h0q10.83.15,21.68.19h0v-27.9q-29.78-.24-59.52-2.25v42.21c0,14.28,6.72,21.3,20.19,21.15q7.83-.07,15.67-.11a2.89,2.89,0,0,1,2.2.92,3,3,0,0,1,.9,2.18v22.95q-8.66.18-17.31.44V477.68q-10.83.19-21.65.49v32.19q30.28-2,60.64-2.25v-42C1513.06,452.68,1506.32,445.87,1492.84,445.58Z" transform="translate(-1180.58 -293.92)" style="fill:#fff"/><path d="M1449.92,513v-37.3l2.43-.06c7.2-.2,14.5-.37,21.68-.5l2.54-.05v14.51c4.09-.12,8.21-.22,12.31-.31v-20.5a.58.58,0,0,0-.2-.45.41.41,0,0,0-.39-.15q-7.83,0-15.66.11c-7.24.06-12.8-1.8-16.64-5.59-4-4-6.07-10.06-6.07-18.06V399.81l2.67.18c19.67,1.32,39.64,2.08,59.37,2.24l2.48,0v32.88h-2.5c-7.27,0-14.57-.09-21.74-.19h-.29l-2.18-.54v-10.6c-3.72-.08-7.45-.17-11.16-.28v18.76a.66.66,0,0,0,.22.51.43.43,0,0,0,.4.18q7.83.07,15.67.12h0c14.82.32,22.66,8.28,22.66,23v44.48l-2.49,0c-20.1.14-40.45.89-60.48,2.25Zm5-32.43v27.08c18.44-1.19,37.13-1.89,55.64-2.06V466.11c0-12-5.64-17.77-17.75-18q-7.83,0-15.66-.12a5.41,5.41,0,0,1-4-1.76,5.67,5.67,0,0,1-1.57-3.93V418.36l2.58.08c5.33.16,10.76.3,16.13.41l2.45,0V430c5.55.07,11.14.12,16.71.15V407.2c-18.13-.19-36.44-.88-54.52-2.05v39.54c0,6.61,1.54,11.49,4.59,14.5,2.85,2.82,7.22,4.21,13.07,4.15q7.85-.07,15.69-.11h0a5.4,5.4,0,0,1,4,1.69,5.55,5.55,0,0,1,1.6,3.92v25.4l-2.45,0c-5.75.12-11.56.26-17.28.44l-2.58.08V480.23C1466,480.34,1460.46,480.46,1454.92,480.61Z" transform="translate(-1180.58 -293.92)" style="fill:#ed5118"/><path d="M1568.34,445.41q-7.85.07-15.68.13a2.89,2.89,0,0,1-2.2-.92,3,3,0,0,1-.89-2.18V421.35q8.07-.15,16.16-.41v11.22h0q10.83-.23,21.66-.56h0V402.5q-29.73,2-59.52,2.23v40.45c0,13.64,6.74,20.45,20.21,20.53q7.85,0,15.68.1a2.93,2.93,0,0,1,2.2,1,3.19,3.19,0,0,1,.89,2.23v23.25q-8.64-.27-17.3-.45V477.43q-10.85-.14-21.68-.16v30.84q30.33.24,60.63,2.31V466.54C1588.52,452.46,1581.8,445.45,1568.34,445.41Z" transform="translate(-1180.58 -293.92)" style="fill:#fff"/><path d="M1591,513.1l-2.67-.19c-20-1.37-40.39-2.14-60.48-2.3l-2.48,0V474.76h2.51c7.2,0,14.5.08,21.7.16l2.47,0v14.39c4.08.09,8.2.2,12.3.32V469a.69.69,0,0,0-.22-.52.46.46,0,0,0-.39-.17q-7.83-.06-15.67-.1c-14.85-.08-22.7-8-22.7-23V402.25l2.48,0c19.72-.16,39.69-.91,59.37-2.23l2.67-.18V434l-2.52.13c-7.13.22-14.42.41-21.61.56l-2.55.06v-11.2c-3.71.11-7.44.2-11.16.28v18.64a.56.56,0,0,0,.19.44.44.44,0,0,0,.38.16h0q7.83,0,15.66-.13h0c14.84,0,22.68,8.21,22.68,23.63Zm-60.63-7.47c18.49.2,37.18.91,55.63,2.12V466.54c0-12.67-5.61-18.59-17.67-18.63q-7.83.07-15.67.13h0a5.38,5.38,0,0,1-4-1.69,5.54,5.54,0,0,1-1.59-3.91V418.9l2.45,0c5.37-.1,10.79-.24,16.13-.4l2.58-.08v11.24c5.52-.12,11.12-.27,16.68-.43v-24c-18.09,1.16-36.4,1.85-54.52,2v38c0,12.23,5.63,18,17.72,18q7.85,0,15.69.1a5.44,5.44,0,0,1,4,1.75,5.69,5.69,0,0,1,1.57,3.94v25.83l-2.58-.08c-5.75-.19-11.57-.34-17.27-.45l-2.45-.05V479.9c-5.55-.06-11.14-.1-16.68-.12Z" transform="translate(-1180.58 -293.92)" style="fill:#ed5118"/><path d="M1261.31,370.82l-1.15-.31q-9.45-2.53-18.84-5.25l-1.91-.56q-9.79-2.85-19.53-5.91V554.05q9.73-3.06,19.53-5.91l1.91-.56q9.4-2.72,18.84-5.25l1.15-.31q9.82-2.62,19.71-5V484.8q-10.59.92-21.14,1.91v25.78a8.24,8.24,0,0,1-.87,3.78,3.25,3.25,0,0,1-2.14,2q-6,1.15-11.94,2.37a2,2,0,0,1-2.13-1.2,7,7,0,0,1-.87-3.64V396.81a7,7,0,0,1,.87-3.64,2,2,0,0,1,2.13-1.2q6,1.21,11.94,2.38a3.25,3.25,0,0,1,2.14,2,8.17,8.17,0,0,1,.87,3.77V420.2q10.55,1.19,21.14,2.29V375.87Q1271.14,373.46,1261.31,370.82Z" transform="translate(-1180.58 -293.92)" style="fill:#fff"/><path d="M1217.38,557.46V355.38l3.25,1c6.45,2,13,4,19.48,5.9l1.91.56c6.19,1.79,12.51,3.55,18.78,5.24l1.15.31c6.52,1.74,13.13,3.43,19.66,5l1.91.46v51.35l-2.76-.29c-7-.72-14.15-1.49-21.16-2.29l-2.22-.25V400.09a5.76,5.76,0,0,0-.6-2.64,1.94,1.94,0,0,0-.47-.68c-3.76-.71-7.58-1.48-11.4-2.25a4.7,4.7,0,0,0-.48,2.29v119a4.67,4.67,0,0,0,.48,2.29q5.73-1.15,11.47-2.27a6.36,6.36,0,0,0,.4-.65,5.73,5.73,0,0,0,.6-2.64V484.44l2.27-.22c7-.66,14.12-1.3,21.15-1.91l2.72-.24v56.86l-1.91.46c-6.55,1.61-13.16,3.31-19.66,5l-1.15.31c-6.22,1.67-12.54,3.44-18.78,5.24l-1.91.56c-6.45,1.88-13,3.86-19.48,5.9Zm5-195.27V550.65c5.45-1.69,10.93-3.34,16.33-4.91l1.92-.56c6.27-1.81,12.62-3.59,18.88-5.27l1.16-.31c5.89-1.57,11.89-3.12,17.85-4.59V487.53c-5.38.47-10.78,1-16.14,1.46v23.5a10.75,10.75,0,0,1-1.14,4.91,5.61,5.61,0,0,1-3.9,3.29q-6,1.15-11.91,2.36a4.38,4.38,0,0,1-4.78-2.37,9.47,9.47,0,0,1-1.22-4.92V396.81a9.51,9.51,0,0,1,1.22-4.93,4.38,4.38,0,0,1,4.78-2.36q6,1.22,11.92,2.38a5.57,5.57,0,0,1,3.89,3.28,10.75,10.75,0,0,1,1.14,4.91V418c5.35.6,10.76,1.19,16.14,1.75V377.83c-6-1.47-11.94-3-17.86-4.59l-1.15-.31c-6.31-1.69-12.66-3.47-18.88-5.27l-1.92-.56C1233.28,365.52,1227.8,363.87,1222.38,362.19Z" transform="translate(-1180.58 -293.92)" style="fill:#ed5118"/><path d="M1415.69,399.32q-11.81-1.23-23.58-2.74a28,28,0,0,0-4.1-.24q-8-1.05-15.93-2.23v23.21c0,.42,0,.83,0,1.26v75.68c0,16.63,6.67,23.83,20.06,22q11.78-1.51,23.58-2.75a33,33,0,0,0,4.1-.7q8-.81,16-1.47V423.07C1435.83,408.54,1429.11,400.76,1415.69,399.32Zm-2.6,88v6.5a3.83,3.83,0,0,1-.89,2.47,3.06,3.06,0,0,1-2.19,1.21q-6.12.48-12.23,1a2.49,2.49,0,0,1-2.19-.87,3.54,3.54,0,0,1-.89-2.43V424.35h0V417a3.49,3.49,0,0,1,.86-2,2.52,2.52,0,0,1,2.19-.88q6.1.54,12.23,1a3.06,3.06,0,0,1,2.19,1.21,3.83,3.83,0,0,1,.89,2.47Z" transform="translate(-1180.58 -293.92)" style="fill:#fff"/><path d="M1388.29,519c-4.85,0-8.83-1.33-11.85-4-4.64-4.05-6.89-10.86-6.89-20.81V418.58c0-.3,0-.58,0-.86V391.21l2.87.42c5.22.78,10.51,1.52,15.72,2.21a29.17,29.17,0,0,1,4.26.26c7.78,1,15.7,1.92,23.52,2.74h0c14.85,1.59,22.38,10.42,22.38,26.23v90.57l-2.29.2c-5.24.44-10.57.92-15.84,1.45a34,34,0,0,1-4.25.71c-7.81.82-15.72,1.74-23.52,2.75A31.71,31.71,0,0,1,1388.29,519Zm-13.71-122,0,20.89c0,.23,0,.45,0,.69v75.68c0,8.31,1.74,14,5.18,17,2.75,2.4,6.69,3.22,12,2.49,7.86-1,15.82-1.94,23.66-2.76a29.2,29.2,0,0,0,3.79-.65l.32-.05c4.59-.46,9.21-.89,13.79-1.28v-86c0-13.19-5.69-19.95-17.91-21.26-7.86-.82-15.81-1.75-23.63-2.76a26,26,0,0,0-3.75-.21h-.18l-.17,0C1383.35,398.24,1379,397.63,1374.58,397Zm23,104a5,5,0,0,1-3.8-1.72,6,6,0,0,1-1.53-4.08V421.73h0l0-5a5.84,5.84,0,0,1,1.48-3.45,5,5,0,0,1,4.27-1.69q6.09.54,12.21,1a5.51,5.51,0,0,1,3.93,2.13,6.26,6.26,0,0,1,1.45,4v75a6.31,6.31,0,0,1-1.45,4.05,5.55,5.55,0,0,1-3.93,2.12q-6.12.48-12.21,1A3.77,3.77,0,0,1,1397.53,501ZM1397.2,427v68.26a1,1,0,0,0,.25.75l.08.08c4.11-.38,8.2-.71,12.28-1,.1,0,.23,0,.44-.28a1.32,1.32,0,0,0,.34-.9v-75a1.36,1.36,0,0,0-.33-.9c-.22-.27-.35-.28-.45-.29q-6.12-.48-12.25-1l-.11.06a.86.86,0,0,0-.22.49V427Z" transform="translate(-1180.58 -293.92)" style="fill:#ed5118"/><path d="M1709,412.92q5.87-.71,11.72-1.45,0-13.47,0-26.94-5.87,1.19-11.72,2.32l-.15,0q-11.18,2.13-22.39,4l-.15,0q-5.88,1-11.78,1.91,0,11.91,0,23.83,5.88-.57,11.77-1.19V497.7q-5.88-.63-11.77-1.21v23.23q5.88.91,11.77,1.9l.16,0q11.2,1.88,22.38,4l.15,0q5.87,1.13,11.72,2.31V501.73q-5.85-.75-11.72-1.46Z" transform="translate(-1180.58 -293.92)" style="fill:#fff"/><path d="M1723.19,531.05l-3-.61c-3.87-.79-7.8-1.56-11.69-2.3l-.15,0c-7.42-1.42-14.93-2.76-22.32-4l-.13,0c-3.87-.65-7.82-1.28-11.78-1.9l-2.11-.32V493.74l2.74.27c3,.29,6,.6,9,.91V418.24l-9,.91-2.74.26,0-28.72,2.12-.33c3.9-.61,7.85-1.25,11.75-1.9l.16,0c7.41-1.24,14.92-2.59,22.31-4l.17,0c3.87-.74,7.8-1.52,11.68-2.31l3-.61v32.2L1721,414c-3.18.4-6.36.8-9.54,1.18v82.92q4.77.58,9.54,1.2l2.18.28ZM1677,517.58c3.26.52,6.51,1,9.69,1.58l.16,0c7.42,1.24,15,2.6,22.43,4l.15,0c2.9.55,5.84,1.12,8.75,1.71v-21c-3.17-.4-6.34-.8-9.52-1.18l-2.2-.27V410.7l2.2-.27q4.77-.57,9.52-1.17V387.58c-2.92.59-5.85,1.16-8.75,1.72l-.15,0c-7.43,1.42-15,2.78-22.44,4l-.14,0c-3.22.54-6.48,1.07-9.71,1.58V413.9c3-.3,6-.6,9-.92l2.76-.29v87.78l-2.76-.29c-3-.32-6-.62-9-.93Z" transform="translate(-1180.58 -293.92)" style="fill:#ed5118"/><path d="M1854,385.9l-.24-35.8-.33-35.8-.1-10.21-8.92,4.68c-9.21,4.83-18.72,9.19-28.33,13.38s-19.38,8.08-29.22,11.79-19.79,7.22-29.79,10.57-20,6.65-30.13,9.74-20.25,6-30.42,8.88-20.4,5.56-30.66,8.09-20.57,5-30.93,7.1q-7.77,1.6-15.59,3c-5.21.9-10.44,1.72-15.71,2.35a306.92,306.92,0,0,0,31.73-2.81c10.53-1.43,21-3.08,31.49-5q31.36-5.82,62.29-13.8,15.46-4,30.8-8.44t30.48-9.7a526.23,526.23,0,0,0,50.5-19.75l-.24,25.94-.24,35.8c-.15,23.87-.18,47.73-.21,71.6s0,47.73.17,71.6q.12,30.89.44,61.76-10.07-4.53-20.25-8.78-14.84-6.12-29.91-11.59t-30.34-10.33c-10.19-3.22-20.48-6.12-30.8-8.84s-20.72-5.2-31.17-7.35-21-4-31.51-5.6a448.17,448.17,0,0,0-63.63-5,560.05,560.05,0,0,1,62.77,9.81q15.51,3.29,30.82,7.38c10.21,2.71,20.37,5.59,30.44,8.75s20.06,6.54,30,10.08,19.8,7.26,29.58,11.19,19.47,8.07,29.07,12.4,19.16,8.75,28.59,13.42l8.93,4.42.1-10.09q.33-35.81.52-71.6c.15-23.87.14-47.73.17-71.6S1854.2,409.77,1854,385.9Z" transform="translate(-1180.58 -293.92)" style="fill:#ed5118"/><path d="M1373.2,538.37q-15.83,2.37-31.51,5.6c-10.46,2.15-20.85,4.65-31.18,7.35s-20.62,5.62-30.81,8.84-20.3,6.67-30.35,10.33-20,7.51-29.91,11.59q-10.2,4.24-20.26,8.78c.18-20.59.36-41.17.43-61.76.16-23.87.14-47.73.18-71.6s-.06-47.73-.21-71.6l-.24-35.8-.25-26a524,524,0,0,0,50.52,19.76q15.17,5.14,30.48,9.7t30.82,8.44q30.9,8,62.3,13.8c10.45,1.94,21,3.59,31.5,5a307.11,307.11,0,0,0,31.74,2.81c-5.27-.63-10.5-1.45-15.72-2.35s-10.41-1.94-15.59-3c-10.37-2.13-20.66-4.58-30.93-7.1s-20.5-5.24-30.68-8.09-20.33-5.77-30.43-8.88-20.15-6.32-30.13-9.74-19.94-6.86-29.8-10.57-19.61-7.61-29.23-11.79-19.12-8.55-28.33-13.38l-8.92-4.68-.1,10.21-.34,35.8-.24,35.8c-.15,23.87-.17,47.73-.21,71.6s0,47.73.17,71.6.31,47.73.53,71.6l.09,10.09,8.93-4.42q14.16-7,28.6-13.42t29.08-12.4q14.67-5.89,29.59-11.19c9.93-3.54,19.92-7,30-10.08s20.23-6,30.44-8.75,20.48-5.2,30.83-7.38a560.59,560.59,0,0,1,62.78-9.81A448.43,448.43,0,0,0,1373.2,538.37Z" transform="translate(-1180.58 -293.92)" style="fill:#ed5118"/><path d="M1281.85,675.75v1.37c0,.22-.16.32-.48.32H1272c-.13,0-.2,0-.2.13v19.94c0,.21-.16.32-.48.32h-2.44c-.32,0-.48-.11-.48-.32V677.57c0-.08-.07-.13-.2-.13h-9c-.32,0-.48-.1-.48-.32v-1.37c0-.22.16-.32.48-.32h22.22C1281.69,675.43,1281.85,675.53,1281.85,675.75Z" transform="translate(-1180.58 -293.92)"/><path d="M1317,697.6l-7.06-9.92a.19.19,0,0,0-.19-.09h-8.16c-.13,0-.19,0-.19.13v9.79c0,.21-.16.32-.48.32h-2.45c-.32,0-.48-.11-.48-.32V675.75c0-.22.16-.32.48-.32h12.43a11.74,11.74,0,0,1,6.67,1.71,5.17,5.17,0,0,1,2.55,4.46,4.83,4.83,0,0,1-1.83,3.81,9.42,9.42,0,0,1-4.94,2c-.13,0-.16.09-.1.16l7.2,9.85a.3.3,0,0,1,0,.16c0,.15-.13.23-.38.23h-2.55A.63.63,0,0,1,1317,697.6Zm-15.6-20.06v8.1c0,.08.06.12.19.12h8.93a8,8,0,0,0,4.51-1.15,3.49,3.49,0,0,0,1.73-3,3.53,3.53,0,0,0-1.73-3,7.9,7.9,0,0,0-4.51-1.17h-8.93C1301.5,677.41,1301.44,677.45,1301.44,677.54Z" transform="translate(-1180.58 -293.92)"/><path d="M1358.12,697.57l-1.92-4a.19.19,0,0,0-.19-.1h-14.35a.19.19,0,0,0-.19.1l-1.92,4a.61.61,0,0,1-.58.26h-2.59c-.35,0-.48-.12-.38-.35l10.6-21.8a.61.61,0,0,1,.58-.25h3.26a.61.61,0,0,1,.58.25l10.66,21.8,0,.12c0,.15-.14.23-.43.23h-2.59A.61.61,0,0,1,1358.12,697.57Zm-15.67-6a.34.34,0,0,0,.17.05H1355a.31.31,0,0,0,.17-.05s.06-.07,0-.11L1349,678.37a.19.19,0,0,0-.15-.06.17.17,0,0,0-.14.06l-6.24,13.06A.07.07,0,0,0,1342.45,691.54Z" transform="translate(-1180.58 -293.92)"/><path d="M1377.52,697.51V675.75c0-.22.16-.32.48-.32h2.44c.32,0,.48.1.48.32v21.76c0,.21-.16.32-.48.32H1378C1377.68,697.83,1377.52,697.72,1377.52,697.51Z" transform="translate(-1180.58 -293.92)"/><path d="M1420,675.43h2.45c.32,0,.48.1.48.32v21.76c0,.21-.16.32-.48.32h-2.4a.81.81,0,0,1-.57-.23l-16.37-17.76a.13.13,0,0,0-.15-.08.1.1,0,0,0-.09.12l0,17.63c0,.21-.17.32-.48.32H1400c-.32,0-.48-.11-.48-.32V675.75c0-.22.16-.32.48-.32h2.4a.8.8,0,0,1,.57.22l16.37,17.76a.12.12,0,0,0,.15.08.1.1,0,0,0,.09-.11l0-17.63C1419.56,675.53,1419.72,675.43,1420,675.43Z" transform="translate(-1180.58 -293.92)"/><path d="M1441.6,697.51V675.75c0-.22.16-.32.48-.32h2.44c.32,0,.48.1.48.32v21.76c0,.21-.16.32-.48.32h-2.44C1441.76,697.83,1441.6,697.72,1441.6,697.51Z" transform="translate(-1180.58 -293.92)"/><path d="M1484.12,675.43h2.45c.32,0,.48.1.48.32v21.76c0,.21-.16.32-.48.32h-2.4a.79.79,0,0,1-.57-.23l-16.37-17.76a.14.14,0,0,0-.15-.08.1.1,0,0,0-.09.12l0,17.63c0,.21-.16.32-.47.32h-2.45c-.32,0-.48-.11-.48-.32V675.75c0-.22.16-.32.48-.32h2.4a.8.8,0,0,1,.57.22l16.37,17.76a.12.12,0,0,0,.15.08.1.1,0,0,0,.09-.11l0-17.63C1483.64,675.53,1483.8,675.43,1484.12,675.43Z" transform="translate(-1180.58 -293.92)"/><path d="M1510,697.2a9.13,9.13,0,0,1-4-2.48,5.39,5.39,0,0,1-1.41-3.68v-8.83a5.4,5.4,0,0,1,1.41-3.68,9.31,9.31,0,0,1,4-2.48,20.3,20.3,0,0,1,11.79,0,9.08,9.08,0,0,1,4,2.41,5.11,5.11,0,0,1,1.39,3.51v.41c0,.22-.16.32-.48.32h-2.45c-.32,0-.48-.1-.48-.32V682a4,4,0,0,0-2.13-3.49,12.67,12.67,0,0,0-11.4,0,4.14,4.14,0,0,0-2.16,3.62v9a4.11,4.11,0,0,0,2.2,3.61,10.86,10.86,0,0,0,5.81,1.38,10.64,10.64,0,0,0,5.59-1.28,3.86,3.86,0,0,0,2.09-3.42v-2.92c0-.08-.06-.12-.19-.12h-7.06c-.32,0-.48-.11-.48-.32v-1.35c0-.21.16-.32.48-.32h10.18c.32,0,.48.11.48.32v4.13a6,6,0,0,1-3.05,5.34,15.21,15.21,0,0,1-8.18,1.92A18,18,0,0,1,1510,697.2Z" transform="translate(-1180.58 -293.92)"/><path d="M1568.22,697.24a9,9,0,0,1-4-2.5,5.47,5.47,0,0,1-1.42-3.73v-8.8a5.37,5.37,0,0,1,1.42-3.68,9.19,9.19,0,0,1,4-2.48,20.36,20.36,0,0,1,11.81,0,9.15,9.15,0,0,1,4,2.43,5.23,5.23,0,0,1,1.41,3.61.3.3,0,0,1-.14.26.65.65,0,0,1-.34.1l-2.45.09c-.32,0-.48-.09-.48-.29v-.09a4.11,4.11,0,0,0-2.16-3.63,12.63,12.63,0,0,0-11.42,0,4.14,4.14,0,0,0-2.16,3.62v9a4.13,4.13,0,0,0,2.16,3.61,12.58,12.58,0,0,0,11.42,0,4.14,4.14,0,0,0,2.16-3.63V691c0-.19.16-.28.48-.28l2.45.09c.32,0,.48.1.48.29a5.32,5.32,0,0,1-1.41,3.66,9.09,9.09,0,0,1-4,2.45,20.36,20.36,0,0,1-11.81,0Z" transform="translate(-1180.58 -293.92)"/><path d="M1623.9,677.41h-17.67c-.13,0-.19,0-.19.13v7.9c0,.09.06.13.19.13h12.39c.32,0,.48.11.48.32v1.35c0,.21-.16.32-.48.32h-12.39c-.13,0-.19,0-.19.12v8c0,.08.06.12.19.12h17.67c.32,0,.48.11.48.32v1.35c0,.21-.16.32-.48.32h-20.79c-.32,0-.48-.11-.48-.32V675.75c0-.22.16-.32.48-.32h20.79c.32,0,.48.1.48.32v1.34C1624.38,677.31,1624.22,677.41,1623.9,677.41Z" transform="translate(-1180.58 -293.92)"/><path d="M1661.77,675.43h2.45c.32,0,.48.1.48.32v21.76c0,.21-.16.32-.48.32h-2.4a.82.82,0,0,1-.58-.23l-16.37-17.76a.13.13,0,0,0-.14-.08.11.11,0,0,0-.1.12l0,17.63c0,.21-.16.32-.48.32h-2.45c-.32,0-.48-.11-.48-.32V675.75c0-.22.16-.32.48-.32h2.4a.81.81,0,0,1,.58.22l16.37,17.76a.12.12,0,0,0,.14.08.1.1,0,0,0,.1-.11l0-17.63C1661.29,675.53,1661.45,675.43,1661.77,675.43Z" transform="translate(-1180.58 -293.92)"/><path d="M1704.06,675.75v1.37c0,.22-.16.32-.48.32h-9.41c-.13,0-.19,0-.19.13v19.94c0,.21-.16.32-.48.32h-2.45c-.32,0-.48-.11-.48-.32V677.57c0-.08-.07-.13-.19-.13h-9c-.32,0-.48-.1-.48-.32v-1.37c0-.22.16-.32.48-.32h22.23C1703.9,675.43,1704.06,675.53,1704.06,675.75Z" transform="translate(-1180.58 -293.92)"/><path d="M1741.5,677.41h-17.67c-.13,0-.19,0-.19.13v7.9c0,.09.06.13.19.13h12.39c.32,0,.48.11.48.32v1.35c0,.21-.16.32-.48.32h-12.39c-.13,0-.19,0-.19.12v8c0,.08.06.12.19.12h17.67c.32,0,.48.11.48.32v1.35c0,.21-.16.32-.48.32h-20.79c-.32,0-.48-.11-.48-.32V675.75c0-.22.16-.32.48-.32h20.79c.32,0,.48.1.48.32v1.34C1742,677.31,1741.82,677.41,1741.5,677.41Z" transform="translate(-1180.58 -293.92)"/><path d="M1777.88,697.6l-7.06-9.92a.19.19,0,0,0-.19-.09h-8.16c-.13,0-.19,0-.19.13v9.79c0,.21-.16.32-.48.32h-2.45c-.32,0-.48-.11-.48-.32V675.75c0-.22.16-.32.48-.32h12.43a11.78,11.78,0,0,1,6.68,1.71,5.19,5.19,0,0,1,2.54,4.46,4.85,4.85,0,0,1-1.82,3.81,9.49,9.49,0,0,1-5,2c-.13,0-.16.09-.09.16l7.2,9.85a.3.3,0,0,1,.05.16c0,.15-.13.23-.39.23h-2.54A.65.65,0,0,1,1777.88,697.6Zm-15.6-20.06v8.1c0,.08.06.12.19.12h8.93a8,8,0,0,0,4.51-1.15,3.49,3.49,0,0,0,1.73-3,3.53,3.53,0,0,0-1.73-3,7.88,7.88,0,0,0-4.51-1.17h-8.93C1762.34,677.41,1762.28,677.45,1762.28,677.54Z" transform="translate(-1180.58 -293.92)"/><rect x="46.09" y="373.29" width="4" height="38.88" style="fill:#ed5118"/><rect x="628.8" y="373.29" width="4" height="38.88" style="fill:#ed5118"/></svg>