<svg xmlns="http://www.w3.org/2000/svg" viewBox="0 0 668.45 401.99"><title>crossfit-logo</title><path d="M298.92,469.05l0,59.28q-12.22,2.5-24.39,5.31,0-77.26,0-154.52,21.87,5,43.9,9.09c13.3,2.55,20,12.81,20,29.82v17c0,10.34-3.07,16.87-9.19,19.77,5.37,2.42,8.06,7.71,8.06,16l-.09,50.5q-11.3,1.86-22.55,4l.09-52.61q0-4.12-3.05-4Zm0-63.32v42.16l13.87.32A2.53,2.53,0,0,0,315,447a4.78,4.78,0,0,0,.88-2.86v-32a5.42,5.42,0,0,0-.88-3,3.09,3.09,0,0,0-2.18-1.53Q305.85,406.73,298.92,405.73Z" transform="translate(-165.81 -304.09)" style="fill:#fff;stroke:#ed5118;stroke-miterlimit:10;stroke-width:5px"/><path d="M607,468.8v44.71q-11.36-1.21-22.74-2.17V401.25Q612,398.91,639.62,395v22.8q-16.32,1.44-32.68,2.54,0,13.92,0,27.83,9-.13,18-.3v21.35Q616,469,607,468.8Z" transform="translate(-165.81 -304.09)" style="fill:#fff;stroke:#ed5118;stroke-miterlimit:10;stroke-width:5px"/><path d="M783.81,398.52c0,3.5.05,7,.07,10.5q8.18-1.25,16.31-2.55-.15-23.79-.31-47.54l-6.06,1.88q-5.12,1.56-10.24,3.08-25.87,7.64-52.06,13.84-5.47,1.29-11,2.53c-1.86.42-3.72.84-5.58,1.24q.15,18.25.31,36.54,8.28-.93,16.55-1.93c0-3-.05-5.95-.07-8.93q7.38-1.1,14.76-2.26V509l-9.24-1.46v28.58q4.62,1.13,9.24,2.29,11.13,2.8,22.21,5.88c3.06.84,6.12,1.71,9.18,2.58V514.44l-9.18-1.66V401.22Q776.28,399.92,783.81,398.52Z" transform="translate(-165.81 -304.09)" style="fill:#fff;stroke:#ed5118;stroke-miterlimit:10;stroke-width:5px"/><path d="M472.86,445.58q-7.85,0-15.68-.12a2.93,2.93,0,0,1-2.2-1,3.15,3.15,0,0,1-.9-2.23V420.94q8.09.24,16.16.41v11.09h0q10.83.15,21.68.19h0v-27.9q-29.77-.24-59.52-2.25v42.21c0,14.28,6.72,21.3,20.19,21.15q7.83-.07,15.67-.11a2.88,2.88,0,0,1,2.2.92,3,3,0,0,1,.9,2.18v22.95q-8.65.18-17.31.44V477.68q-10.83.19-21.65.49v32.19q30.29-2,60.64-2.25v-42C493.07,452.68,486.33,445.87,472.86,445.58Z" transform="translate(-165.81 -304.09)" style="fill:#fff;stroke:#ed5118;stroke-miterlimit:10;stroke-width:5px"/><path d="M548.35,445.41q-7.83.07-15.67.13a2.88,2.88,0,0,1-2.2-.92,3,3,0,0,1-.9-2.18V421.35q8.08-.15,16.16-.41v11.22h0q10.85-.23,21.66-.56h0V402.5q-29.73,2-59.52,2.23v40.45c0,13.64,6.74,20.45,20.21,20.53q7.85,0,15.68.1a2.93,2.93,0,0,1,2.2,1,3.19,3.19,0,0,1,.89,2.23v23.25q-8.64-.27-17.3-.45V477.43q-10.85-.14-21.68-.16v30.84q30.35.24,60.64,2.31V466.54C568.54,452.46,561.81,445.45,548.35,445.41Z" transform="translate(-165.81 -304.09)" style="fill:#fff;stroke:#ed5118;stroke-miterlimit:10;stroke-width:5px"/><path d="M241.32,370.82l-1.15-.31q-9.43-2.53-18.83-5.25l-1.92-.56q-9.79-2.85-19.53-5.91V554.05q9.75-3.06,19.53-5.91l1.92-.56q9.39-2.72,18.83-5.25l1.15-.31q9.84-2.62,19.71-5V484.8q-10.59.92-21.14,1.91v25.78a8.24,8.24,0,0,1-.87,3.78,3.23,3.23,0,0,1-2.14,2q-6,1.15-11.93,2.37a2,2,0,0,1-2.14-1.2,7,7,0,0,1-.87-3.64V396.81a7,7,0,0,1,.87-3.64A2,2,0,0,1,225,392q6,1.21,11.93,2.38a3.22,3.22,0,0,1,2.14,2,8.17,8.17,0,0,1,.87,3.77V420.2q10.55,1.19,21.14,2.29V375.87Q251.16,373.46,241.32,370.82Z" transform="translate(-165.81 -304.09)" style="fill:#fff;stroke:#ed5118;stroke-miterlimit:10;stroke-width:5px"/><path d="M395.7,399.32q-11.81-1.23-23.58-2.74a28,28,0,0,0-4.09-.24q-8-1.05-15.94-2.23v23.21c0,.42,0,.83,0,1.26v75.68c0,16.63,6.67,23.83,20.06,22q11.78-1.51,23.58-2.75a33.5,33.5,0,0,0,4.11-.7q8-.81,16-1.47V423.07C415.84,408.54,409.12,400.76,395.7,399.32Zm-2.6,88v6.5a3.83,3.83,0,0,1-.89,2.47,3,3,0,0,1-2.19,1.21q-6.12.48-12.23,1a2.51,2.51,0,0,1-2.19-.87,3.54,3.54,0,0,1-.89-2.43V424.35h0V417a3.41,3.41,0,0,1,.85-2,2.54,2.54,0,0,1,2.19-.88q6.12.54,12.23,1a3,3,0,0,1,2.19,1.21,3.83,3.83,0,0,1,.89,2.47Z" transform="translate(-165.81 -304.09)" style="fill:#fff;stroke:#ed5118;stroke-miterlimit:10;stroke-width:5px"/><path d="M689,412.92q5.87-.71,11.72-1.45,0-13.47,0-26.94-5.85,1.19-11.72,2.32l-.15,0q-11.18,2.13-22.38,4l-.16,0q-5.88,1-11.77,1.91,0,11.91,0,23.83,5.9-.57,11.78-1.19V497.7q-5.89-.63-11.78-1.21v23.23q5.9.91,11.78,1.9l.15,0q11.2,1.88,22.38,4l.15,0q5.87,1.13,11.72,2.31V501.73q-5.85-.75-11.72-1.46Z" transform="translate(-165.81 -304.09)" style="fill:#fff;stroke:#ed5118;stroke-miterlimit:10;stroke-width:5px"/><path d="M583.29,533.34a448.15,448.15,0,0,1,63.62,5q15.83,2.37,31.51,5.6c10.46,2.15,20.84,4.65,31.17,7.35s20.61,5.62,30.8,8.84,20.3,6.67,30.34,10.33,20,7.51,29.91,11.59S820.3,590.51,830,595l-9,5.68c-.22-23.87-.44-47.73-.53-71.6s-.14-47.73-.17-71.6.06-47.73.21-71.6l.24-35.8.34-35.8,9,5.53c-19.38,9.58-39.41,17.2-59.61,24.08q-15.16,5.14-30.48,9.7t-30.81,8.44q-30.9,8-62.28,13.8c-10.46,1.94-21,3.59-31.49,5a307.35,307.35,0,0,1-31.74,2.81c5.27-.63,10.5-1.45,15.72-2.35s10.4-1.94,15.58-3c10.37-2.13,20.66-4.58,30.93-7.1s20.49-5.24,30.66-8.09,20.33-5.77,30.43-8.88,20.14-6.32,30.12-9.74,19.94-6.86,29.79-10.57,19.61-7.61,29.23-11.79,19.11-8.55,28.32-13.38l8.92-4.68.1,10.21.34,35.8.24,35.8c.15,23.87.17,47.73.21,71.6s0,47.73-.18,71.6-.3,47.73-.52,71.6l-.1,10.09-8.92-4.42q-14.16-7-28.59-13.42t-29.08-12.4q-14.67-5.89-29.58-11.19c-9.93-3.54-19.92-7-30-10.08s-20.23-6-30.43-8.75-20.48-5.19-30.83-7.38A559.88,559.88,0,0,0,583.29,533.34Z" transform="translate(-165.81 -304.09)" style="fill:#ed5118"/><path d="M416.86,533.34a560.4,560.4,0,0,0-62.79,9.81q-15.51,3.27-30.83,7.38c-10.21,2.71-20.37,5.59-30.44,8.75s-20.06,6.54-30,10.08-19.8,7.26-29.58,11.19-19.48,8.07-29.09,12.4-19.16,8.75-28.6,13.42l-8.92,4.42-.1-10.09q-.33-35.81-.52-71.6c-.15-23.87-.14-47.73-.18-71.6s.06-47.73.21-71.6l.24-35.8.34-35.8.1-10.21,8.92,4.68c9.21,4.83,18.72,9.19,28.33,13.38s19.39,8.09,29.24,11.79S253,341.16,263,344.51s20,6.66,30.13,9.74,20.27,6,30.44,8.88,20.4,5.56,30.67,8.09,20.56,5,30.93,7.1q7.77,1.6,15.59,3c5.22.9,10.45,1.72,15.72,2.35a307.11,307.11,0,0,1-31.74-2.81c-10.54-1.43-21-3.08-31.5-5q-31.37-5.82-62.3-13.8-15.46-4-30.81-8.44t-30.49-9.7c-20.21-6.88-40.25-14.5-59.63-24.08l9-5.53.34,35.8.24,35.8c.15,23.87.17,47.73.21,71.6s0,47.73-.17,71.6-.31,47.73-.53,71.6l-9-5.68q14.55-6.78,29.37-12.94t29.91-11.59q15.07-5.49,30.35-10.33c10.2-3.22,20.48-6.12,30.81-8.84s20.72-5.2,31.18-7.35,21-4,31.51-5.6A448.57,448.57,0,0,1,416.86,533.34Z" transform="translate(-165.81 -304.09)" style="fill:#ed5118"/><path d="M261.87,675.75v1.37c0,.22-.16.32-.48.32H252c-.13,0-.19,0-.19.13v19.94c0,.21-.16.32-.48.32h-2.45c-.32,0-.48-.11-.48-.32V677.57c0-.08-.07-.13-.19-.13h-9c-.32,0-.48-.1-.48-.32v-1.37c0-.22.16-.32.48-.32h22.23C261.71,675.43,261.87,675.53,261.87,675.75Z" transform="translate(-165.81 -304.09)" style="fill:#fff"/><path d="M297.05,697.6,290,687.68a.19.19,0,0,0-.19-.09h-8.16c-.13,0-.19,0-.19.13v9.79c0,.21-.16.32-.48.32h-2.45c-.32,0-.48-.11-.48-.32V675.75c0-.22.16-.32.48-.32H291a11.78,11.78,0,0,1,6.68,1.71,5.19,5.19,0,0,1,2.54,4.46,4.85,4.85,0,0,1-1.82,3.81,9.49,9.49,0,0,1-5,2c-.13,0-.16.09-.09.16l7.2,9.85a.29.29,0,0,1,0,.16c0,.15-.12.23-.38.23h-2.54A.65.65,0,0,1,297.05,697.6Zm-15.6-20.06v8.1c0,.08.06.12.19.12h8.93a8,8,0,0,0,4.51-1.15,3.49,3.49,0,0,0,1.73-3,3.53,3.53,0,0,0-1.73-3,7.88,7.88,0,0,0-4.51-1.17h-8.93C281.51,677.41,281.45,677.45,281.45,677.54Z" transform="translate(-165.81 -304.09)" style="fill:#fff"/><path d="M338.14,697.57l-1.92-4a.21.21,0,0,0-.19-.1H321.67a.2.2,0,0,0-.19.1l-1.92,4a.6.6,0,0,1-.57.26h-2.6c-.35,0-.48-.12-.38-.35l10.61-21.8a.59.59,0,0,1,.57-.25h3.27a.59.59,0,0,1,.57.25l10.66,21.8.05.12c0,.15-.15.23-.44.23h-2.59A.6.6,0,0,1,338.14,697.57Zm-15.67-6a.28.28,0,0,0,.16.05H335a.28.28,0,0,0,.16-.05c.05,0,.06-.07,0-.11L329,678.37a.18.18,0,0,0-.15-.06.17.17,0,0,0-.14.06l-6.24,13.06S322.42,691.51,322.47,691.54Z" transform="translate(-165.81 -304.09)" style="fill:#fff"/><path d="M357.53,697.51V675.75c0-.22.16-.32.48-.32h2.45c.32,0,.48.1.48.32v21.76c0,.21-.16.32-.48.32H358C357.69,697.83,357.53,697.72,357.53,697.51Z" transform="translate(-165.81 -304.09)" style="fill:#fff"/><path d="M400.06,675.43h2.44c.32,0,.48.1.48.32v21.76c0,.21-.16.32-.48.32h-2.4a.81.81,0,0,1-.57-.23l-16.37-17.76a.13.13,0,0,0-.14-.08.11.11,0,0,0-.1.12l.05,17.63c0,.21-.16.32-.48.32H380c-.32,0-.48-.11-.48-.32V675.75c0-.22.16-.32.48-.32h2.4a.82.82,0,0,1,.58.22l16.36,17.76a.13.13,0,0,0,.15.08.1.1,0,0,0,.09-.11l0-17.63C399.58,675.53,399.74,675.43,400.06,675.43Z" transform="translate(-165.81 -304.09)" style="fill:#fff"/><path d="M421.61,697.51V675.75c0-.22.16-.32.48-.32h2.45c.32,0,.48.1.48.32v21.76c0,.21-.16.32-.48.32h-2.45C421.77,697.83,421.61,697.72,421.61,697.51Z" transform="translate(-165.81 -304.09)" style="fill:#fff"/><path d="M464.14,675.43h2.44c.32,0,.48.1.48.32v21.76c0,.21-.16.32-.48.32h-2.4a.81.81,0,0,1-.57-.23l-16.37-17.76a.13.13,0,0,0-.15-.08.1.1,0,0,0-.09.12l.05,17.63c0,.21-.16.32-.48.32h-2.45c-.32,0-.48-.11-.48-.32V675.75c0-.22.16-.32.48-.32h2.4a.8.8,0,0,1,.57.22l16.37,17.76a.12.12,0,0,0,.15.08.1.1,0,0,0,.09-.11l0-17.63C463.66,675.53,463.81,675.43,464.14,675.43Z" transform="translate(-165.81 -304.09)" style="fill:#fff"/><path d="M490,697.2a9,9,0,0,1-4-2.48,5.35,5.35,0,0,1-1.42-3.68v-8.83a5.37,5.37,0,0,1,1.42-3.68,9.19,9.19,0,0,1,4-2.48,20.26,20.26,0,0,1,11.78,0,9.08,9.08,0,0,1,4,2.41,5.11,5.11,0,0,1,1.39,3.51v.41c0,.22-.16.32-.48.32h-2.44c-.33,0-.49-.1-.49-.32V682a4,4,0,0,0-2.13-3.49,12.67,12.67,0,0,0-11.4,0,4.14,4.14,0,0,0-2.16,3.62v9a4.1,4.1,0,0,0,2.21,3.61,10.83,10.83,0,0,0,5.8,1.38,10.67,10.67,0,0,0,5.6-1.28,3.87,3.87,0,0,0,2.08-3.42v-2.92c0-.08-.06-.12-.19-.12h-7.05c-.32,0-.48-.11-.48-.32v-1.35c0-.21.16-.32.48-.32h10.17c.32,0,.48.11.48.32v4.13a6,6,0,0,1-3.05,5.34,15.19,15.19,0,0,1-8.18,1.92A17.91,17.91,0,0,1,490,697.2Z" transform="translate(-165.81 -304.09)" style="fill:#fff"/><path d="M548.23,697.24a9,9,0,0,1-4-2.5,5.52,5.52,0,0,1-1.42-3.73v-8.8a5.41,5.41,0,0,1,1.42-3.68,9.19,9.19,0,0,1,4-2.48A20.36,20.36,0,0,1,560,676a9.15,9.15,0,0,1,4,2.43,5.23,5.23,0,0,1,1.41,3.61.28.28,0,0,1-.14.26.62.62,0,0,1-.34.1l-2.44.09c-.32,0-.48-.09-.48-.29v-.09a4.11,4.11,0,0,0-2.16-3.63,12.65,12.65,0,0,0-11.43,0,4.14,4.14,0,0,0-2.16,3.62v9a4.13,4.13,0,0,0,2.16,3.61,12.61,12.61,0,0,0,11.43,0,4.14,4.14,0,0,0,2.16-3.63V691c0-.19.16-.28.48-.28l2.44.09c.32,0,.48.1.48.29A5.32,5.32,0,0,1,564,694.8a9.09,9.09,0,0,1-4,2.45,20.36,20.36,0,0,1-11.81,0Z" transform="translate(-165.81 -304.09)" style="fill:#fff"/><path d="M603.91,677.41H586.25c-.13,0-.2,0-.2.13v7.9c0,.09.07.13.2.13h12.38c.32,0,.48.11.48.32v1.35c0,.21-.16.32-.48.32H586.25c-.13,0-.2,0-.2.12v8c0,.08.07.12.2.12h17.66c.32,0,.48.11.48.32v1.35c0,.21-.16.32-.48.32H583.13c-.32,0-.48-.11-.48-.32V675.75c0-.22.16-.32.48-.32h20.78c.32,0,.48.1.48.32v1.34C604.39,677.31,604.23,677.41,603.91,677.41Z" transform="translate(-165.81 -304.09)" style="fill:#fff"/><path d="M641.78,675.43h2.45c.32,0,.48.1.48.32v21.76c0,.21-.16.32-.48.32h-2.4a.83.83,0,0,1-.58-.23l-16.36-17.76a.14.14,0,0,0-.15-.08.1.1,0,0,0-.09.12l0,17.63c0,.21-.16.32-.48.32h-2.44c-.32,0-.48-.11-.48-.32V675.75c0-.22.16-.32.48-.32h2.4a.8.8,0,0,1,.57.22l16.37,17.76a.12.12,0,0,0,.14.08.1.1,0,0,0,.1-.11l-.05-17.63C641.3,675.53,641.46,675.43,641.78,675.43Z" transform="translate(-165.81 -304.09)" style="fill:#fff"/><path d="M684.07,675.75v1.37c0,.22-.16.32-.48.32h-9.41c-.13,0-.19,0-.19.13v19.94c0,.21-.16.32-.48.32h-2.45c-.32,0-.48-.11-.48-.32V677.57c0-.08-.06-.13-.19-.13h-9c-.32,0-.48-.1-.48-.32v-1.37c0-.22.16-.32.48-.32h22.22C683.91,675.43,684.07,675.53,684.07,675.75Z" transform="translate(-165.81 -304.09)" style="fill:#fff"/><path d="M721.51,677.41H703.84c-.12,0-.19,0-.19.13v7.9c0,.09.07.13.19.13h12.39c.32,0,.48.11.48.32v1.35c0,.21-.16.32-.48.32H703.84c-.12,0-.19,0-.19.12v8c0,.08.07.12.19.12h17.67c.32,0,.48.11.48.32v1.35c0,.21-.16.32-.48.32H700.72c-.32,0-.48-.11-.48-.32V675.75c0-.22.16-.32.48-.32h20.79c.32,0,.48.1.48.32v1.34C722,677.31,721.83,677.41,721.51,677.41Z" transform="translate(-165.81 -304.09)" style="fill:#fff"/><path d="M757.89,697.6l-7-9.92a.21.21,0,0,0-.19-.09h-8.16c-.13,0-.2,0-.2.13v9.79c0,.21-.16.32-.48.32h-2.44c-.32,0-.48-.11-.48-.32V675.75c0-.22.16-.32.48-.32H751.8a11.76,11.76,0,0,1,6.67,1.71A5.16,5.16,0,0,1,761,681.6a4.82,4.82,0,0,1-1.82,3.81,9.46,9.46,0,0,1-4.94,2c-.13,0-.16.09-.1.16l7.2,9.85a.3.3,0,0,1,0,.16c0,.15-.13.23-.39.23h-2.54A.65.65,0,0,1,757.89,697.6Zm-15.6-20.06v8.1c0,.08.07.12.2.12h8.92a8,8,0,0,0,4.52-1.15,3.48,3.48,0,0,0,1.72-3,3.52,3.52,0,0,0-1.72-3,7.94,7.94,0,0,0-4.52-1.17h-8.92C742.36,677.41,742.29,677.45,742.29,677.54Z" transform="translate(-165.81 -304.09)" style="fill:#fff"/><line x1="42.87" y1="363.11" x2="42.87" y2="401.99" style="fill:none;stroke:#ed5118;stroke-miterlimit:10;stroke-width:4px"/><line x1="625.58" y1="363.11" x2="625.58" y2="401.99" style="fill:none;stroke:#ed5118;stroke-miterlimit:10;stroke-width:4px"/></svg>