<svg xmlns="http://www.w3.org/2000/svg" viewBox="0 0 699.91 165.26"><title>no-limits</title><polygon points="163.08 52.45 123.88 52.45 114.61 52.45 100.83 52.45 91.05 52.45 7.03 52.45 0 164.37 69.57 164.37 75.79 142.1 72 164.37 104.83 164.37 118.34 84.97 120.75 84.97 107.23 164.37 140.73 164.37 154.25 84.97 157.55 84.97 144.03 164.37 206.23 164.37 225.28 52.45 171.45 52.45 163.08 52.45" style="fill:#fff"/><path d="M6603.51,468.93c-9.63,0-17.61,2.78-23.73,8.27-.74.67-1.44,1.36-2.11,2.1l1.61-9.48h-62.09l-19,111.92h62.09l2.07-12.17a23.72,23.72,0,0,0,1.8,3c4.68,6.65,12.21,10,22.38,10,9.63,0,17.69-3,23.94-9,6-5.76,10-14,11.73-24.36l8-46.68c1.76-10.33.33-18.57-4.24-24.47C6621.14,472,6613.62,468.93,6603.51,468.93Z" transform="translate(-6270.24 -417.37)" style="fill:#fff"/><path d="M6970.15,469.82h-34.6L6934.5,479c-4.34-6.65-12.23-10-23.48-10a32.82,32.82,0,0,0-19,5.49l.78-4.6H6775.05l-4.9,15.94.52-15.94h-69.55l-13.87,81.53h-11.06l13.87-81.53h-33.49l-19.06,111.92h188.62l13.52-79.4h2.41l-13.52,79.4H6862l13.51-79.4h1.35c-1.07,9.31,1.67,17.72,8.15,25l3.54,4H6871.9l-2.6,15.28c-2,11.73-.85,20.39,3.5,26.45,4.54,6.34,12.55,9.55,23.81,9.55,8.75,0,15.88-2.4,21.27-7.13l-1.05,6.18h33.84l5.15-30.29h-4Zm-39.43,41.85-1.64,14.14a29.33,29.33,0,0,0-1.65-3.15,57.43,57.43,0,0,0-5.74-7.72l-2.85-3.27Z" transform="translate(-6270.24 -417.37)" style="fill:#fff"/><polygon points="56.6 121.31 61.91 59.27 43.59 59.27 27.5 121.31 32.65 59.27 13.44 59.27 7.26 157.55 31.22 157.55 43.96 110.25 40.82 157.55 64.39 157.55 91.84 59.27 72.41 59.27 56.6 121.31"/><polygon points="80.08 157.55 99.06 157.55 115.79 59.27 96.81 59.27 80.08 157.55"/><polygon points="117.16 78.14 128.83 78.14 115.31 157.55 134.97 157.55 148.49 78.14 160.16 78.14 163.37 59.27 120.37 59.27 117.16 78.14"/><polygon points="191.68 94.39 182.41 94.39 188.38 59.27 168.84 59.27 152.11 157.55 171.66 157.55 179.24 112.99 188.51 112.99 180.93 157.55 200.47 157.55 217.2 59.27 197.65 59.27 191.68 94.39"/><polygon points="273.96 106.34 272.93 59.27 252.71 59.27 235.98 157.55 255.19 157.55 263.56 108.41 265.02 157.55 284.23 157.55 300.96 59.27 281.97 59.27 273.96 106.34"/><path d="M6603.51,475.75q-11.9,0-19.17,6.53t-9.44,19.16L6567,548.12q-2.29,13.46,2.72,20.58t16.8,7.11q11.78,0,19.22-7.11t9.73-20.58l7.94-46.68q2.16-12.63-2.91-19.16T6603.51,475.75Zm-7.84,73.32q-1.48,8.65-5.94,8.65a3.21,3.21,0,0,1-3.35-2q-.78-2,0-6.56l8.15-47.91c.85-4.95,2.9-7.43,6.18-7.43q4.35,0,3.12,7.26Z" transform="translate(-6270.24 -417.37)"/><polygon points="411.74 59.27 392.09 59.27 375.36 157.55 415.23 157.55 418.08 140.8 397.86 140.8 411.74 59.27"/><polygon points="419.92 157.55 438.9 157.55 455.63 59.27 436.65 59.27 419.92 157.55"/><polygon points="491.44 119.19 493.38 59.27 463.45 59.27 446.72 157.55 464.48 157.55 476.53 86.74 476.43 157.55 494.07 157.55 517.4 86.74 505.35 157.55 523.33 157.55 540.06 59.27 509.85 59.27 491.44 119.19"/><polygon points="531.15 157.55 550.13 157.55 566.86 59.27 547.88 59.27 531.15 157.55"/><polygon points="568.23 78.14 579.9 78.14 566.38 157.55 586.04 157.55 599.55 78.14 611.23 78.14 614.44 59.27 571.44 59.27 568.23 78.14"/><path d="M6921.63,526.26a51.4,51.4,0,0,0-5.09-6.84l-9.48-10.89a15.69,15.69,0,0,1-3.47-5.53,10,10,0,0,1-.36-4.47,6.13,6.13,0,0,1,1.67-3.38,4.94,4.94,0,0,1,3.65-1.31,3.26,3.26,0,0,1,3.52,4.25l-1.15,6.75h20q2.51-14.68-1.94-21.89t-17.95-7.2q-11.06,0-18,6.59t-9.1,19.15a24.47,24.47,0,0,0,6.25,21.33l7.4,8.38a51.08,51.08,0,0,1,5,6.45,14.15,14.15,0,0,1,2.11,5.81,26.51,26.51,0,0,1-.4,7.56,11,11,0,0,1-1.91,5.14,4.87,4.87,0,0,1-4,1.56q-2.57,0-3.27-1.92a10.76,10.76,0,0,1-.12-5.34l2.09-12.28h-19.44l-1.63,9.6q-2.49,14.64,2.32,21.33t18.26,6.7q12.68,0,19.12-7.84t8.8-21.69a33.27,33.27,0,0,0,.25-11.65A24.45,24.45,0,0,0,6921.63,526.26Z" transform="translate(-6270.24 -417.37)"/><polygon points="675.3 130.8 691.38 59.27 671.39 59.27 663.13 130.8 675.3 130.8"/><polygon points="654.67 157.49 674.66 157.49 677.5 140.85 657.51 140.85 654.67 157.49"/><polygon points="67.24 31.68 73.7 1.96 87.62 1.96 85.8 10.32 80.6 10.32 80.18 12.23 85.17 12.23 83.39 20.46 78.39 20.46 77.78 23.27 83.33 23.27 81.5 31.68 67.24 31.68"/><path d="M6339.5,447.43l5.75-26.48h10.59l-1.11,5.12h-5.2l-1.13,5.16h5l-1.08,5h-5l-1.31,6.06h5.55l-1.13,5.16Z" transform="translate(-6270.24 -417.37)" style="fill:#fff"/><path d="M6350.07,449.05l5.61-25.81h8.49a5.6,5.6,0,0,1,1.66-.24c2.75,0,4,1.26,4.53,2.32a7.33,7.33,0,0,1,.35,5.05l-4.06,18.68Z" transform="translate(-6270.24 -417.37)"/><path d="M6352.09,447.43l4.9-22.57h5.39l-.63,2.88a6.48,6.48,0,0,1,1.6-2.21,3.63,3.63,0,0,1,2.48-.91c1.56,0,2.59.49,3.09,1.45a5.85,5.85,0,0,1,.2,3.95l-3.78,17.41H6360l3.66-16.85a2.56,2.56,0,0,0,0-1.23.74.74,0,0,0-.81-.56,1.26,1.26,0,0,0-1,.43,3,3,0,0,0-.61,1.07,12,12,0,0,0-.35,1.27l-3.45,15.87Z" transform="translate(-6270.24 -417.37)" style="fill:#fff"/><path d="M6368.31,453a5,5,0,0,1-3.22-.75l-.78-.63,1.37-6.29,1.07.31,6.14-28.23h8.71l-6.34,29.17a9.65,9.65,0,0,1-2.17,4.53A6.21,6.21,0,0,1,6368.31,453Z" transform="translate(-6270.24 -417.37)"/><path d="M6368.31,451.34a4,4,0,0,1-2.2-.39l.78-3.61a1.69,1.69,0,0,0,.48.07.64.64,0,0,0,.61-.3,2.65,2.65,0,0,0,.27-.77l4.67-21.48h5.39l-4.64,21.33a7.94,7.94,0,0,1-1.78,3.78A4.6,4.6,0,0,1,6368.31,451.34Zm4.91-27.86,1-4.48h5.38l-1,4.48Z" transform="translate(-6270.24 -417.37)" style="fill:#fff"/><path d="M6382,449.29c-2.68,0-4.65-.75-5.85-2.25s-1.58-3.82-.95-6.71l2-9.06a10.61,10.61,0,0,1,3.42-6,9.49,9.49,0,0,1,6.42-2.3c2.66,0,4.63.87,5.87,2.57a7.73,7.73,0,0,1,.95,6.39l-2,9.06C6390.73,446.43,6387.32,449.29,6382,449.29Z" transform="translate(-6270.24 -417.37)"/><path d="M6382,447.67q-6.73,0-5.21-7l2-9.05a9.07,9.07,0,0,1,2.9-5.09,7.93,7.93,0,0,1,5.36-1.91q3.18,0,4.55,1.91a6.16,6.16,0,0,1,.69,5.09l-2,9.05Q6388.81,447.67,6382,447.67Zm.91-4.15A1.32,1.32,0,0,0,6384,443a2.9,2.9,0,0,0,.57-1.24l2.39-11c.29-1.31,0-2-.83-2s-1.41.66-1.69,2l-2.4,11a2.23,2.23,0,0,0,0,1.24A.84.84,0,0,0,6383,443.52Z" transform="translate(-6270.24 -417.37)" style="fill:#fff"/><path d="M6387.57,452.81l1.45-6.66h3l1.3-22.91h8.54l-.16,1.29.41-1.29h8.76l-10.21,26a6.38,6.38,0,0,1-1.76,2.58,5,5,0,0,1-3.28,1Z" transform="translate(-6270.24 -417.37)"/><path d="M6389.58,451.19l.75-3.42h2.58c.39,0,.62-.13.68-.4a3.12,3.12,0,0,0,.05-.44l1.26-22.07h5.16L6398,441.47l5.39-16.61h5.18l-9.33,23.74a4.73,4.73,0,0,1-1.29,1.93,3.38,3.38,0,0,1-2.24.66Z" transform="translate(-6270.24 -417.37)" style="fill:#fff"/><path d="M6416.31,449.29a5,5,0,0,1-3.88-1.4,5.12,5.12,0,0,1-1.25-3.45,16.62,16.62,0,0,1,.43-3.83,14.86,14.86,0,0,1,1.29-3.78,7.54,7.54,0,0,1,2.35-2.72,9,9,0,0,1,1.62-.94h-3.06l.16-1.77a5.08,5.08,0,0,1,.08-.51l.1-.43a9.27,9.27,0,0,1,3.24-5.73,10.35,10.35,0,0,1,6.3-1.73,8.5,8.5,0,0,1,3.82.81,5.46,5.46,0,0,1,2.61,2.67,6.49,6.49,0,0,1,.28,4.1l-4,18.47h-8.51A5.18,5.18,0,0,1,6416.31,449.29Z" transform="translate(-6270.24 -417.37)"/><path d="M6416.31,447.67a3.51,3.51,0,0,1-2.68-.87,3.55,3.55,0,0,1-.82-2.4,14.91,14.91,0,0,1,.39-3.44,12.93,12.93,0,0,1,1.14-3.38,6.17,6.17,0,0,1,1.86-2.16,10.76,10.76,0,0,1,3-1.43l3.59-1.14.5-2.32c.27-1.21,0-1.81-.79-1.81s-1.19.49-1.4,1.47l-.3,1.35h-5.23a1.5,1.5,0,0,1,.05-.31q0-.18.09-.42a7.76,7.76,0,0,1,2.63-4.78,8.78,8.78,0,0,1,5.33-1.41,7,7,0,0,1,3.1.64,3.82,3.82,0,0,1,1.85,1.89,4.89,4.89,0,0,1,.17,3.08l-3.74,17.2h-5.35l.58-2.68a5.69,5.69,0,0,1-1.77,2.17A3.8,3.8,0,0,1,6416.31,447.67Zm3-4.18a1.15,1.15,0,0,0,1-.56,3.75,3.75,0,0,0,.51-1.2l1.36-6.29a6.18,6.18,0,0,0-2,1.13,3.67,3.67,0,0,0-1.06,2l-.63,2.91C6418.28,442.82,6418.54,443.49,6419.34,443.49Z" transform="translate(-6270.24 -417.37)" style="fill:#fff"/><path d="M6435.23,453a5,5,0,0,1-3.22-.75l-.78-.63,1.37-6.29,1.07.31,6.14-28.23h8.71l-6.34,29.17a9.65,9.65,0,0,1-2.17,4.53A6.21,6.21,0,0,1,6435.23,453Z" transform="translate(-6270.24 -417.37)"/><path d="M6435.23,451.34a4,4,0,0,1-2.2-.39l.79-3.61a1.64,1.64,0,0,0,.48.07.62.62,0,0,0,.6-.3,2.39,2.39,0,0,0,.27-.77l4.67-21.48h5.39l-4.64,21.33a8,8,0,0,1-1.77,3.78A4.64,4.64,0,0,1,6435.23,451.34Zm4.91-27.86,1-4.48h5.38l-1,4.48Z" transform="translate(-6270.24 -417.37)" style="fill:#fff"/><path d="M6449,449.29c-2.69,0-4.66-.75-5.86-2.25s-1.58-3.82-.95-6.71l2-9.06a10.67,10.67,0,0,1,3.42-6A9.52,9.52,0,0,1,6454,423c2.66,0,4.63.87,5.87,2.57a7.69,7.69,0,0,1,.95,6.39l-2,9.06C6457.65,446.43,6454.24,449.29,6449,449.29Z" transform="translate(-6270.24 -417.37)"/><path d="M6449,447.67q-6.75,0-5.22-7l2-9.05a9,9,0,0,1,2.89-5.09,7.93,7.93,0,0,1,5.36-1.91q3.18,0,4.55,1.91a6.16,6.16,0,0,1,.69,5.09l-2,9.05Q6455.73,447.67,6449,447.67Zm.9-4.15a1.32,1.32,0,0,0,1.07-.49,2.9,2.9,0,0,0,.57-1.24l2.39-11c.29-1.31,0-2-.83-2s-1.41.66-1.69,2l-2.4,11a2.23,2.23,0,0,0,0,1.24A.84.84,0,0,0,6449.87,443.52Z" transform="translate(-6270.24 -417.37)" style="fill:#fff"/><path d="M6462.05,449.29a5.13,5.13,0,0,1-3.71-1.2,4.46,4.46,0,0,1-1.35-3.21,14.35,14.35,0,0,1,.37-3.56l3.93-18.08h16.59l-5.61,25.81h-8.38A6.61,6.61,0,0,1,6462.05,449.29Z" transform="translate(-6270.24 -417.37)"/><path d="M6462.05,447.67a3.72,3.72,0,0,1-2.6-.75,3,3,0,0,1-.84-2.1,12.55,12.55,0,0,1,.34-3.15l3.65-16.81H6468L6464.5,441a5.75,5.75,0,0,0-.2,1.89c.06.36.36.54.88.54a1.27,1.27,0,0,0,1.22-.76,7.72,7.72,0,0,0,.64-1.94l3.46-15.9h5.37L6471,447.43h-5.38l.52-2.41a7.49,7.49,0,0,1-1.65,2A3.83,3.83,0,0,1,6462.05,447.67Z" transform="translate(-6270.24 -417.37)" style="fill:#fff"/><path d="M6471.11,449.05l5.61-25.81h8.78a6.86,6.86,0,0,1,1.95-.27h2l-1.68,7.75h-1.31a9.89,9.89,0,0,0-1.37.12,9.62,9.62,0,0,0-1.29.28l-3.9,17.93Z" transform="translate(-6270.24 -417.37)"/><path d="M6473.13,447.43l4.9-22.57h5.48l-.55,2.52a5.14,5.14,0,0,1,1.83-2.05,4.86,4.86,0,0,1,2.66-.74l-1,4.5a11.81,11.81,0,0,0-1.61.14,10,10,0,0,0-1.69.4c-.5.16-.77.34-.82.54l-3.74,17.26Z" transform="translate(-6270.24 -417.37)" style="fill:#fff"/><path d="M6481.79,449.05l5.61-25.81h8.49a5.6,5.6,0,0,1,1.66-.24c2.75,0,4,1.26,4.53,2.32a7.33,7.33,0,0,1,.35,5.05l-4.06,18.68Z" transform="translate(-6270.24 -417.37)"/><path d="M6483.81,447.43l4.9-22.57h5.39l-.63,2.88a6.48,6.48,0,0,1,1.6-2.21,3.63,3.63,0,0,1,2.48-.91c1.56,0,2.59.49,3.09,1.45a5.85,5.85,0,0,1,.2,3.95l-3.78,17.41h-5.31l3.66-16.85a2.56,2.56,0,0,0,0-1.23.74.74,0,0,0-.81-.56,1.26,1.26,0,0,0-1,.43,3,3,0,0,0-.61,1.07,12,12,0,0,0-.35,1.27l-3.45,15.87Z" transform="translate(-6270.24 -417.37)" style="fill:#fff"/><path d="M6505.43,449.29a7.66,7.66,0,0,1-4.6-1.21,5.34,5.34,0,0,1-2.12-3.68,13,13,0,0,1,.29-4.67l2-9.07a9.39,9.39,0,0,1,3.45-5.72,10.23,10.23,0,0,1,6.29-1.94c2.67,0,4.61.74,5.79,2.19s1.48,3.53.91,6.16l-.36,1.64c-.44,2-.75,3.38-.95,4.09h.06l-.7,3.25a16.61,16.61,0,0,1-1.73,4.71,8.23,8.23,0,0,1-3.32,3.2A10.86,10.86,0,0,1,6505.43,449.29Z" transform="translate(-6270.24 -417.37)"/><path d="M6505.43,447.67a6.09,6.09,0,0,1-3.64-.91,3.74,3.74,0,0,1-1.48-2.6,12,12,0,0,1,.27-4.09l2-9.07a7.7,7.7,0,0,1,2.84-4.76,8.56,8.56,0,0,1,5.31-1.62q6.49,0,5.11,6.38l-.35,1.64c-.44,2-.74,3.32-.93,4h-7.83l-.94,4.36a8.44,8.44,0,0,0-.18,1.18,1.78,1.78,0,0,0,.13,1,.76.76,0,0,0,.77.38,1.27,1.27,0,0,0,1.21-.73,8.39,8.39,0,0,0,.62-1.91l.47-2.16h5.36l-.28,1.28a14.49,14.49,0,0,1-1.55,4.23,6.44,6.44,0,0,1-2.66,2.57A9.09,9.09,0,0,1,6505.43,447.67Zm1.84-13.71h2.55l.66-3a3.5,3.5,0,0,0,.08-1.76.75.75,0,0,0-.78-.53,1.45,1.45,0,0,0-1.11.51,3.88,3.88,0,0,0-.74,1.78Z" transform="translate(-6270.24 -417.37)" style="fill:#fff"/><path d="M6510.94,452.81l1.45-6.66h3l1.31-22.91h8.53l-.16,1.29.42-1.29h8.75l-10.21,26a6.37,6.37,0,0,1-1.75,2.58,5,5,0,0,1-3.29,1Z" transform="translate(-6270.24 -417.37)"/><path d="M6513,451.19l.74-3.42h2.58c.4,0,.62-.13.68-.4a2.12,2.12,0,0,0,.05-.44l1.26-22.07h5.16l-2.11,16.61,5.39-16.61h5.19l-9.34,23.74a4.73,4.73,0,0,1-1.29,1.93,3.36,3.36,0,0,1-2.24.66Z" transform="translate(-6270.24 -417.37)" style="fill:#fff"/><polygon points="255.9 31.66 257.58 23.93 266.29 23.93 264.61 31.66 255.9 31.66"/><path d="M6528.16,447.41l1-4.48h5.38l-1,4.48Z" transform="translate(-6270.24 -417.37)" style="fill:#fff"/><polygon points="262.94 31.66 264.62 23.93 273.33 23.93 271.65 31.66 262.94 31.66"/><path d="M6535.2,447.41l1-4.48h5.38l-1,4.48Z" transform="translate(-6270.24 -417.37)" style="fill:#fff"/><polygon points="269.98 31.66 271.66 23.93 280.37 23.93 278.69 31.66 269.98 31.66"/><path d="M6542.23,447.41l1-4.48h5.38l-1,4.48Z" transform="translate(-6270.24 -417.37)" style="fill:#fff"/></svg>