<svg xmlns="http://www.w3.org/2000/svg" viewBox="0 0 900 52"><title>sf-bottom-2</title><rect y="2" width="900" height="50" style="fill:#fff"/><path d="M5150,436.79l21,17.38,3.28-16.93,12.56,5.06,19.4-5.41,2.24,4.4,7.88-.48v6.13l7-3.56,8.77,7.37,2.13-11,7.15-.44,4.73,3.16,20.44,2v5.15l15.9-8.1,7.84,6.59,1-5.21,16.22,1.59-7-5.58h.73l5.16-1.41,1.63,3.88,7.53-.34v4.81l12.12-6.17,4.94,3.3,11.46,1.12,13.15,11.06,2.87-14.84,3.27-.15v4.73l8.49-4.33,3.34,2.07,10.58,1-3.78-3.4,12.09,1.43-2.71-4.88h2.5l1.91,4.55,7-.32,6.22,5.23,1.08-5.56,3.46-.16v7.1l17.61-9,8.94,6,4.94.48,10.83,9.12,1.53-7.91,10.36,1-5.2-4.17,8.05-4.1,6.53,4.35,9.59.94,12.87,10.83,2.71-14,2.1.25v8.5l21-10.73,2.65,1.77,2.64,6.71,4.92-1.56v-1.47l16.08,1.57v4.34l7.15-3.64.22,0-.1-.08,11.4-5.81,1.63.2,7,5.9.55-2.85,13.42,11.29,1.89-9.76,7.42.73,5.06,12.89,12.12-3.83-.07-10.68,9.84,1.16-2.87-5.15,17,5.61.15-5.7,3.16-.14v10.11L5668.08,440l8,6.7,1.42-7.32,7.27.06,4.79-1.31,1.37,3.26,5.16-.23v3.77l6.84-3.48,8.9,7.49,1.71-8.82,13.46,1.59-2-3.53,4.93-1.35h1.79l1.92,4.56,8.22-.38,11.93,10,2.26-11.64,3,2,5.51,14.06,8.23-2.61-.05-8.39,2.89.28,11.69,9.84,2.93-15.11v8.35l15.8-8,5.86,3.92,3.13.3,14.25,12,2-10.4h0l.88-4.56,4.88-.23v9.38l8-4.07,2.55,6.5,12.43-3.93L5860,440l6.68,4.45,12.64,1.24-.58,2.16,5-1.73,7.59.75,4.93,4.14,1.9-9.84,3.83-1.32,1.6-.07,3.44,8.77,8.25-2.62,0-6.72,8.9,4.38,15.55-2.59,10.1,8.5,1.54-8,3.18,2.12,19.45,1.9-7.95-6.37,14.6,1.72v5.89L5994,440l5,3.3,16.4,1.61-6.71-5.38,19.59,2.31-2.8-5h10l2.18,5.55,7.65-2.42.14,2.23,4.63,4.31V425H5150Z" transform="translate(-5150 -425)"/><polygon points="767.41 31.53 778.21 33.19 777.64 27.04 771.36 23.33 767.41 31.53"/><polygon points="803.11 20.74 807.78 32.65 814.74 30.44 814.69 22.56 803.11 20.74"/><polygon points="818.83 32.09 831.53 33.05 829.25 23.16 818.83 32.09"/><polygon points="802.24 41.75 811.39 42.26 799.13 28.95 802.24 41.75"/><polygon points="712.59 18.93 714.47 28.18 720.71 30.61 720.04 23.32 712.59 18.93"/><polygon points="790.11 32.69 776.83 42.93 794.11 47.8 793.95 38.27 790.11 32.69"/><polygon points="787.11 19.76 776.99 21.14 793.95 31.92 787.11 19.76"/><polygon points="757.5 40.19 771.29 42.92 752.81 22.89 757.5 40.19"/><polygon points="656.49 18.92 659.32 32.86 668.71 36.51 667.71 25.54 656.49 18.92"/><polygon points="741.88 36.51 747.16 39.83 751.87 33.45 743.73 28.1 741.88 36.51"/><polygon points="693.22 31.92 693.22 41.72 707.92 30.58 693.22 31.92"/><polygon points="624.63 23.22 627.2 35.82 635.69 39.13 634.77 29.2 624.63 23.22"/><polygon points="722.62 29.63 728.29 37.29 734.76 40.88 733.03 27.35 722.62 29.63"/><polygon points="674.37 37.58 688.15 36.89 687.03 26.73 674.37 37.58"/><polygon points="642.59 24.92 642.75 43.76 654.77 18.24 642.59 24.92"/><polygon points="589.9 18.85 591.78 28.08 598 30.5 597.33 23.23 589.9 18.85"/><polygon points="650.56 44.76 657.79 47.78 658.99 40.25 653.8 32.72 650.56 44.76"/><polygon points="611.91 40.84 622.62 39.56 622.32 31.92 611.91 40.84"/><polygon points="608.06 18.36 606.73 29.87 614.14 32.99 608.06 18.36"/><polygon points="548.53 22.03 550.19 30.17 555.68 32.3 555.09 25.89 548.53 22.03"/><polygon points="564.4 18.32 569.27 30.73 576.53 28.43 576.48 20.21 564.4 18.32"/><polygon points="581.16 37.29 591.5 34.38 581.44 24.23 581.16 37.29"/><polygon points="561.59 35.67 566.6 35.95 559.88 28.66 561.59 35.67"/><polygon points="510.42 21.85 511.45 26.92 514.86 28.25 514.5 24.26 510.42 21.85"/><polygon points="460.11 40.36 463.61 44.9 466.22 41.82 465.07 37.28 460.11 40.36"/><polygon points="478.93 22.15 482.1 26.27 485.77 26.01 483.67 22.57 478.93 22.15"/><polygon points="543.62 33.45 535.79 36.4 545.81 41.72 545.72 36.5 543.62 33.45"/><polygon points="378.73 38.71 381.62 43.34 387.02 43.73 385.73 38.71 378.73 38.71"/><polygon points="489.89 47.38 491.67 49.03 495 42.67 489.48 40.76 489.89 47.38"/><polygon points="487.82 34.43 492.24 33.89 496.66 29.09 491.14 27.18 487.82 34.43"/><polygon points="528.91 16.35 531.95 24.08 536.47 22.65 536.43 17.53 528.91 16.35"/><polygon points="871.25 22.61 874.28 30.33 878.8 28.9 878.77 23.79 871.25 22.61"/><polygon points="543.23 23.09 536.47 28.88 544.71 29.5 543.23 23.09"/><polygon points="522.34 39.61 535.79 40.36 517.76 20.81 522.34 39.61"/><polygon points="421.17 20.27 423.94 33.87 433.1 37.43 432.12 26.73 421.17 20.27"/><polygon points="500 38.6 510.42 44.26 511.47 34.49 505.83 26.31 500 38.6"/><polygon points="710.7 41.93 717.45 37.73 706.56 38.4 710.7 41.93"/><polygon points="413.96 23.26 415.08 28.78 418.81 30.23 418.41 25.88 413.96 23.26"/><polygon points="601 37 601.65 40.53 608.22 34.98 602.53 32.3 601 37"/><polygon points="443.13 33.76 450 34.28 450.5 27.44 443.13 33.76"/><polygon points="434.86 48.16 450.92 39.11 439.12 36.02 434.86 48.16"/><polygon points="320.79 16.7 323.48 29.91 332.38 33.38 331.42 22.98 320.79 16.7"/><polygon points="471.76 26.11 474.45 39.31 483.35 42.78 482.39 32.38 471.76 26.11"/><polygon points="408.17 27.51 413.61 40.24 418.24 44.55 418 33.89 408.17 27.51"/><polygon points="370.06 18.44 361.48 28.01 366.45 33.89 370.65 26.16 370.06 18.44"/><polygon points="386.53 28.03 402.94 45.38 399.5 28.46 386.53 28.03"/><polygon points="369.06 38.23 375.05 40.56 371.61 30.77 369.06 38.23"/><polygon points="376.35 32.21 389.76 38.06 373.47 20.38 376.35 32.21"/><polygon points="283.5 22.57 281.12 35.15 294.28 38.09 292.69 25.78 283.5 22.57"/><polygon points="355.65 29.61 356.1 40.64 363.87 43.73 361.99 36.16 355.65 29.61"/><polygon points="336.08 42.15 350.1 36.62 336.82 22.62 336.08 42.15"/><polygon points="313.22 39.81 322.4 37.32 311.44 25.43 313.22 39.81"/><polygon points="233.72 32.76 235.41 41.03 240.98 43.2 240.38 36.69 233.72 32.76"/><polygon points="4.93 41.58 8.57 50 17.4 48.25 10.97 42.53 4.93 41.58"/><polygon points="840.15 23.2 845.1 35.81 852.47 33.47 852.41 25.13 840.15 23.2"/><polygon points="298.94 38.33 303.21 31.98 296.41 27.12 298.94 38.33"/><polygon points="272.59 24.34 279.41 30.04 281.41 17.63 272.59 24.34"/><polygon points="190.53 31.05 190.15 38.69 199.02 42.14 198.07 31.77 190.53 31.05"/><polygon points="269.94 24.92 265.74 33.81 276.05 36 275.4 32.85 269.94 24.92"/><polygon points="252.82 24.64 241.03 22.79 245.79 34.91 252.87 32.66 252.82 24.64"/><polygon points="221.5 21.27 220.9 38.81 234.78 24.97 221.5 21.27"/><polygon points="159.35 36.02 167.68 43.02 170.09 30.54 158.93 24.75 159.35 36.02"/><polygon points="210.45 42.16 215.43 42.43 208.75 35.19 210.45 42.16"/><polygon points="190.01 22.26 185.96 19.87 186.98 24.9 190.38 26.23 190.01 22.26"/><polygon points="887.41 24.85 888.43 29.88 891.83 31.21 891.46 27.24 887.41 24.85"/><polygon points="252.87 40.56 261.99 38.06 261.99 32.21 258.01 30.33 252.87 40.56"/><polygon points="106.42 46.69 117.42 46.77 123.97 44.99 111.71 39.12 106.42 46.69"/><polygon points="28.85 40.56 31.86 48.24 36.35 46.82 36.32 41.73 28.85 40.56"/><polygon points="57.4 44.71 65.59 45.33 64.12 38.95 57.4 44.71"/><polygon points="177.69 27.33 184.03 27.68 175.53 18.46 177.69 27.33"/><polygon points="863.24 35.25 869.58 35.61 861.08 26.39 863.24 35.25"/><polygon points="14.93 30.38 16.24 36.79 20.56 38.47 20.09 33.42 14.93 30.38"/><polygon points="174.14 35.29 174.67 43.66 176.91 45.76 176.8 39.15 174.14 35.29"/><polygon points="143.94 20.28 147.78 30.06 153.49 28.25 153.45 21.78 143.94 20.28"/><polygon points="138.03 43.52 148.46 44.31 146.59 36.19 138.03 43.52"/><polygon points="131.44 19.3 134.46 31.72 143.35 32.21 131.44 19.3"/><polygon points="47.35 33.82 52.49 37.75 53.88 30.79 48.16 24.7 47.35 33.82"/><polygon points="125.54 22.92 122.28 34.64 129.42 37.57 129.26 28.32 125.54 22.92"/><polygon points="112.57 23.05 100.58 27.51 115.19 34.42 112.57 23.05"/><polygon points="92.42 37.31 104.53 37.98 88.3 20.37 92.42 37.31"/><polygon points="10.43 22.84 0.57 17.02 3.06 29.27 11.32 32.49 10.43 22.84"/><polygon points="76.25 26.02 72.39 42.95 85.54 47.98 81.33 32.41 76.25 26.02"/><polygon points="25.17 36.34 36.51 38.01 42.03 26.9 27.04 16.41 25.17 36.34"/><polygon points="64.55 18.61 53.88 19.19 63.51 35.47 64.55 18.61"/></svg>